<?xml version="1.0" standalone="no"?>
<!DOCTYPE svg PUBLIC "-//W3C//DTD SVG 20010904//EN"
 "http://www.w3.org/TR/2001/REC-SVG-20010904/DTD/svg10.dtd">
<svg version="1.0" xmlns="http://www.w3.org/2000/svg"
 width="1243.000000pt" height="1243.000000pt" viewBox="0 0 1243.000000 1243.000000"
 preserveAspectRatio="xMidYMid meet">
<metadata>
Created by potrace 1.14, written by Peter Selinger 2001-2017
</metadata>
<g transform="translate(0.000000,1243.000000) scale(0.100000,-0.100000)"
fill="#000000" stroke="none">
<path d="M6020 12404 c-165 -32 -289 -85 -433 -184 -77 -53 -178 -146 -206
-190 -8 -14 -22 -29 -29 -33 -7 -5 -17 -18 -23 -30 -5 -12 -15 -31 -21 -42
-60 -92 -62 -96 -120 -240 -37 -91 -51 -191 -51 -352 0 -89 5 -158 11 -165 5
-7 12 -35 15 -63 6 -65 28 -138 44 -148 7 -4 13 -17 13 -28 0 -12 9 -32 20
-46 11 -14 20 -32 20 -40 0 -41 106 -180 228 -300 78 -76 83 -84 80 -119 -6
-72 -26 -67 -140 36 -98 90 -198 201 -198 222 0 6 -13 27 -30 48 -16 21 -30
44 -30 52 0 8 -4 18 -9 24 -13 13 -71 166 -71 187 0 10 -7 31 -15 47 -8 15
-17 48 -20 72 -2 24 -9 66 -14 93 -16 83 -12 232 10 335 11 52 24 115 29 140
4 25 15 59 24 75 9 17 16 38 16 47 0 9 4 19 9 22 4 3 21 31 37 63 44 88 83
144 153 221 18 20 45 52 58 70 14 17 30 32 35 32 5 0 27 15 48 33 33 27 40 38
40 69 0 45 -19 58 -82 58 -45 0 -233 -30 -353 -55 -38 -9 -104 -22 -145 -31
-167 -33 -353 -82 -580 -154 -91 -28 -194 -61 -230 -72 -36 -11 -69 -24 -75
-28 -5 -4 -21 -11 -35 -15 -14 -4 -43 -15 -65 -25 -22 -11 -80 -35 -130 -55
-49 -20 -117 -50 -150 -65 -33 -16 -76 -36 -95 -44 -19 -9 -42 -20 -50 -25 -8
-5 -35 -19 -60 -31 -25 -11 -52 -25 -60 -29 -8 -5 -35 -18 -60 -30 -25 -12
-67 -36 -95 -53 -27 -17 -55 -31 -61 -32 -7 -1 -19 -8 -28 -15 -9 -8 -45 -28
-79 -45 -34 -18 -109 -63 -166 -101 -108 -73 -145 -97 -200 -130 -18 -11 -61
-42 -95 -70 -33 -27 -68 -54 -77 -60 -48 -29 -137 -95 -149 -110 -8 -10 -46
-41 -85 -70 -39 -28 -82 -63 -97 -76 -75 -70 -107 -97 -146 -128 -52 -41 -390
-378 -447 -447 -22 -26 -49 -57 -60 -69 -11 -12 -37 -42 -58 -68 -21 -26 -43
-52 -50 -59 -7 -7 -29 -35 -49 -63 -21 -27 -49 -61 -64 -74 -14 -14 -44 -50
-65 -80 -22 -31 -55 -76 -74 -101 -19 -25 -42 -58 -50 -73 -27 -47 -110 -168
-159 -231 -25 -33 -46 -63 -46 -68 0 -4 -24 -49 -52 -98 -81 -139 -96 -166
-163 -295 -34 -66 -77 -149 -96 -185 -19 -36 -39 -79 -46 -95 -29 -75 -105
-253 -119 -277 -7 -14 -14 -35 -14 -45 0 -10 -6 -27 -14 -38 -7 -11 -28 -62
-45 -114 -18 -52 -36 -101 -41 -110 -5 -9 -21 -56 -35 -106 -14 -49 -33 -110
-41 -135 -48 -145 -66 -215 -88 -335 -3 -16 -12 -61 -22 -100 -79 -339 -124
-675 -144 -1085 -16 -324 16 -931 61 -1165 5 -27 16 -95 24 -150 18 -115 44
-241 55 -270 4 -11 20 -78 35 -150 15 -71 34 -147 41 -169 8 -21 14 -49 14
-61 0 -12 7 -28 15 -35 8 -7 15 -22 15 -34 0 -12 9 -46 21 -76 11 -30 24 -68
29 -85 28 -104 74 -235 95 -271 14 -24 25 -53 25 -66 0 -13 7 -33 15 -45 9
-12 22 -42 31 -65 35 -100 178 -403 195 -414 5 -3 9 -16 9 -29 0 -13 4 -26 9
-29 5 -3 23 -34 41 -68 35 -68 96 -176 120 -213 8 -13 33 -54 54 -92 21 -37
60 -97 85 -133 26 -36 52 -77 58 -92 7 -15 48 -75 93 -133 44 -59 87 -119 94
-133 8 -15 30 -44 50 -65 20 -22 43 -52 52 -68 8 -16 18 -29 23 -29 4 0 23
-21 41 -48 18 -26 43 -56 54 -68 12 -11 39 -42 61 -68 101 -121 378 -406 394
-406 4 0 12 -8 17 -19 5 -10 45 -49 89 -87 44 -38 93 -82 110 -99 31 -30 74
-66 128 -108 15 -12 56 -46 90 -75 34 -30 93 -76 132 -103 68 -48 91 -64 137
-102 13 -11 56 -40 96 -65 41 -26 95 -62 120 -80 26 -17 69 -44 95 -60 27 -15
74 -43 105 -63 32 -19 107 -62 167 -94 61 -32 116 -65 123 -72 7 -7 18 -13 24
-13 9 0 193 -88 228 -110 30 -18 186 -82 212 -87 15 -3 33 -11 39 -19 6 -8 17
-14 24 -14 6 0 72 -24 146 -53 74 -29 161 -62 194 -72 87 -26 237 -75 260 -85
11 -5 31 -11 45 -14 14 -2 59 -14 100 -26 97 -28 182 -48 250 -60 30 -6 82
-16 115 -24 33 -8 81 -19 108 -25 26 -6 62 -11 80 -11 17 0 61 -6 97 -14 103
-23 186 -35 320 -46 69 -6 168 -15 220 -19 317 -28 996 0 1335 54 55 9 131 20
170 25 38 6 83 14 100 19 16 5 64 15 105 21 41 7 82 14 90 17 23 9 308 84 365
96 28 6 56 17 63 24 7 7 25 13 38 13 14 0 35 5 46 11 11 6 71 26 132 44 107
32 166 54 307 116 36 16 73 29 82 29 9 0 18 4 21 9 3 5 17 12 31 15 24 6 200
87 235 107 8 5 53 28 100 50 47 23 92 45 100 50 90 51 126 69 136 69 7 0 17 6
21 13 4 8 20 20 35 28 94 49 407 246 483 304 61 46 116 85 165 118 30 20 61
45 68 56 7 12 19 21 27 21 8 0 18 6 22 13 4 8 29 29 55 48 86 63 185 147 304
260 117 110 358 355 408 414 14 17 65 76 113 132 49 56 96 112 105 125 9 13
41 52 70 87 29 35 60 73 68 86 8 12 27 39 41 61 15 21 41 54 58 73 17 19 31
40 31 47 0 6 7 17 16 25 8 7 25 30 37 52 34 62 43 76 59 94 15 19 65 99 164
268 50 86 76 134 139 259 20 41 93 182 109 211 16 31 85 194 126 300 12 33 29
74 36 90 7 17 20 48 27 70 8 22 21 58 30 80 21 57 34 98 67 200 73 233 91 291
104 353 53 246 76 359 76 379 0 13 4 31 9 41 18 33 50 240 72 462 19 187 22
292 23 620 1 217 -2 440 -6 495 -12 154 -46 428 -69 550 -11 61 -26 146 -33
190 -8 44 -19 100 -25 125 -6 25 -27 113 -47 195 -20 83 -44 175 -54 205 -40
124 -100 318 -100 324 0 4 -11 32 -25 62 -14 30 -25 62 -25 72 0 9 -9 31 -20
47 -11 17 -20 40 -20 52 0 12 -4 24 -10 28 -5 3 -14 20 -19 38 -35 117 -276
610 -370 757 -23 36 -44 72 -48 80 -3 8 -19 34 -35 57 -15 23 -28 46 -28 52 0
5 -15 29 -32 53 -18 24 -45 61 -59 83 -98 149 -123 185 -154 225 -19 25 -39
55 -45 68 -5 12 -14 22 -19 22 -5 0 -20 17 -32 37 -25 39 -138 178 -224 274
-27 31 -79 89 -115 129 -78 88 -318 327 -392 391 -29 25 -91 79 -137 120 -46
41 -114 98 -150 127 -36 29 -67 57 -69 62 -2 6 -8 10 -13 10 -5 0 -33 19 -63
43 -29 23 -86 65 -126 92 -39 28 -82 59 -95 71 -12 11 -48 35 -79 53 -31 17
-77 47 -103 67 -25 19 -67 46 -92 60 -73 39 -102 56 -164 97 -32 20 -65 37
-72 37 -8 0 -17 5 -20 11 -4 5 -44 28 -88 50 -45 22 -89 44 -97 49 -16 9 -96
49 -170 85 -44 22 -120 55 -262 116 -40 17 -86 37 -101 45 -16 8 -35 14 -42
14 -7 0 -26 7 -42 15 -40 20 -218 82 -358 125 -33 10 -91 28 -130 39 -127 40
-149 45 -235 61 -36 7 -87 18 -115 26 -178 49 -602 115 -875 135 -247 19 -601
20 -690 3z m1135 -224 c66 -11 147 -25 180 -31 33 -6 101 -18 150 -28 50 -9
96 -20 103 -25 7 -4 55 -16 105 -27 51 -10 101 -23 112 -28 11 -6 54 -17 95
-26 41 -9 91 -23 110 -30 121 -47 172 -65 225 -83 119 -40 251 -90 306 -115
31 -15 63 -27 71 -27 9 0 21 -7 28 -15 7 -8 19 -15 26 -15 11 0 130 -52 184
-81 8 -4 71 -36 140 -70 69 -34 152 -80 186 -101 34 -21 65 -38 69 -38 4 0 24
-13 45 -30 21 -16 42 -30 47 -30 4 0 35 -18 68 -40 33 -22 64 -40 69 -40 4 0
34 -18 65 -40 31 -22 94 -66 141 -97 47 -31 96 -66 110 -78 14 -12 57 -46 95
-74 93 -70 144 -111 175 -141 15 -14 45 -38 67 -53 22 -15 52 -40 66 -55 14
-15 56 -54 93 -87 58 -51 284 -274 336 -331 9 -11 22 -23 28 -29 18 -17 90
-97 128 -145 20 -25 64 -76 97 -115 84 -97 135 -161 135 -170 0 -4 21 -33 48
-64 51 -63 73 -92 100 -133 16 -24 81 -122 128 -192 50 -74 74 -113 84 -131 6
-11 19 -33 30 -50 11 -16 26 -43 35 -60 8 -16 26 -48 38 -70 69 -116 96 -166
102 -186 4 -12 22 -47 41 -78 19 -31 34 -60 34 -65 0 -5 15 -41 34 -80 77
-164 96 -204 96 -210 0 -4 9 -28 21 -54 11 -26 24 -56 29 -67 25 -57 60 -155
60 -167 0 -8 11 -38 25 -66 14 -29 25 -61 25 -72 0 -10 7 -36 16 -57 35 -79
76 -216 104 -343 11 -52 25 -111 30 -130 11 -39 46 -190 61 -260 5 -25 16 -90
23 -145 8 -55 20 -129 25 -165 60 -370 70 -1104 20 -1490 -5 -41 -12 -109 -15
-150 -3 -41 -9 -86 -14 -100 -5 -14 -14 -54 -20 -90 -23 -138 -76 -388 -90
-426 -6 -14 -10 -40 -10 -59 0 -19 -4 -36 -9 -39 -5 -3 -12 -23 -15 -43 -4
-21 -14 -60 -22 -88 -8 -27 -24 -81 -35 -120 -12 -38 -27 -85 -35 -103 -8 -18
-14 -39 -14 -48 0 -8 -8 -31 -19 -52 -10 -20 -24 -59 -30 -87 -7 -27 -26 -78
-42 -113 -16 -35 -29 -69 -29 -75 0 -7 -9 -29 -20 -50 -11 -20 -20 -44 -20
-52 0 -8 -4 -15 -10 -15 -5 0 -10 -5 -10 -11 0 -17 -72 -182 -87 -200 -7 -8
-13 -21 -13 -28 0 -7 -11 -27 -25 -45 -14 -18 -25 -37 -25 -42 0 -8 -39 -88
-77 -159 -6 -11 -16 -31 -22 -45 -6 -14 -22 -43 -36 -65 -13 -22 -28 -49 -33
-60 -6 -12 -17 -27 -25 -34 -9 -7 -19 -26 -22 -42 -4 -16 -10 -29 -15 -29 -4
0 -13 -14 -19 -30 -5 -17 -17 -33 -26 -36 -8 -3 -15 -10 -15 -14 0 -4 -29 -52
-65 -106 -36 -54 -65 -102 -65 -107 0 -7 -19 -34 -137 -186 -31 -40 -70 -94
-87 -120 -17 -25 -38 -52 -48 -59 -10 -7 -18 -20 -18 -28 0 -8 -4 -14 -10 -14
-5 0 -25 -21 -45 -47 -135 -177 -619 -652 -824 -808 -28 -22 -82 -66 -119 -97
-37 -32 -73 -58 -79 -58 -7 0 -18 -9 -25 -20 -7 -11 -18 -20 -24 -20 -6 0 -44
-25 -84 -55 -40 -30 -77 -55 -81 -55 -5 0 -36 -19 -69 -43 -34 -23 -68 -46
-77 -52 -9 -5 -46 -29 -82 -52 -36 -24 -71 -43 -77 -43 -6 0 -19 -9 -29 -20
-10 -11 -24 -20 -30 -20 -7 0 -23 -8 -36 -18 -13 -10 -87 -52 -164 -92 -77
-40 -155 -81 -173 -92 -18 -10 -37 -18 -42 -18 -5 0 -53 -21 -107 -46 -136
-64 -174 -81 -203 -89 -14 -4 -30 -11 -36 -16 -6 -5 -31 -15 -55 -23 -24 -8
-69 -24 -99 -36 -70 -27 -246 -89 -285 -99 -16 -5 -79 -24 -140 -44 -158 -51
-223 -66 -595 -141 -152 -31 -445 -68 -674 -86 -224 -17 -922 -8 -1026 15 -14
2 -72 9 -130 15 -58 6 -132 15 -165 21 -33 6 -85 15 -115 20 -30 5 -86 15
-125 23 -38 8 -97 19 -130 26 -33 6 -69 15 -80 20 -11 4 -56 16 -100 25 -44 9
-93 21 -110 26 -122 34 -196 57 -300 92 -257 86 -320 109 -330 118 -5 5 -17 9
-27 9 -10 0 -41 11 -70 24 -54 25 -157 69 -238 102 -25 11 -70 32 -100 48 -30
16 -108 57 -172 90 -176 92 -306 165 -313 176 -4 6 -21 17 -38 25 -62 28 -158
87 -191 117 -11 10 -23 18 -28 18 -4 0 -69 46 -144 103 -76 56 -154 113 -174
127 -20 14 -60 44 -87 68 -28 23 -54 42 -58 42 -5 0 -21 14 -37 32 -15 17 -39
39 -52 47 -47 31 -153 129 -341 316 -195 194 -253 256 -314 335 -19 25 -52 62
-73 82 -21 20 -38 41 -38 47 0 5 -8 16 -18 23 -11 7 -25 24 -32 38 -16 30 -55
82 -92 120 -16 15 -28 31 -28 35 0 4 -15 25 -34 48 -18 23 -40 56 -49 72 -8
17 -24 39 -36 49 -12 11 -21 23 -21 28 0 5 -16 30 -35 55 -19 25 -35 51 -35
57 0 6 -18 35 -40 64 -22 29 -40 55 -40 58 0 3 -25 46 -56 96 -62 100 -230
422 -289 553 -52 115 -74 167 -94 220 -13 33 -33 83 -46 110 -13 28 -27 66
-30 85 -4 19 -15 51 -25 70 -9 19 -23 53 -29 75 -7 22 -18 56 -26 75 -8 19
-24 69 -35 110 -12 41 -26 87 -32 102 -5 14 -18 61 -28 105 -10 43 -26 105
-35 138 -10 33 -21 83 -25 110 -5 28 -16 79 -25 115 -23 92 -42 202 -61 355
-3 28 -10 75 -15 105 -33 195 -50 776 -33 1105 3 72 6 137 6 145 0 16 29 253
49 400 7 47 21 128 31 180 11 52 24 120 28 150 15 94 26 144 37 165 6 11 16
52 22 90 7 39 17 84 22 100 6 17 21 66 34 110 13 44 42 132 64 195 23 63 41
123 41 133 0 10 9 35 20 55 10 20 31 71 45 112 27 77 31 87 109 251 25 53 46
103 46 111 0 8 7 23 15 34 8 10 15 26 15 34 0 8 9 21 20 28 11 7 20 21 20 31
0 10 8 29 18 42 16 23 44 77 76 149 9 19 27 53 41 75 13 22 32 56 42 75 10 19
24 41 31 48 6 7 12 20 12 28 0 8 4 14 9 14 5 0 26 33 46 72 20 40 40 75 43 78
4 3 21 25 38 50 17 25 50 72 73 105 22 33 41 63 41 68 0 4 7 15 15 25 31 35
61 72 85 107 25 36 104 139 128 165 7 8 22 26 33 40 11 14 51 58 87 99 37 41
77 87 88 103 45 60 494 508 510 508 4 0 16 9 28 20 115 109 467 382 518 402
10 4 18 12 18 17 0 5 13 13 28 19 16 5 35 16 43 24 13 13 88 65 157 110 15 10
52 31 83 47 31 16 70 41 86 55 17 14 40 26 51 26 11 0 25 7 33 16 7 8 41 29
76 45 35 16 63 34 63 39 0 6 9 10 19 10 18 0 165 72 186 91 5 5 16 9 25 9 8 0
49 18 90 40 41 22 83 40 93 40 11 0 31 7 45 15 34 18 81 37 217 86 61 22 124
46 140 53 17 7 71 25 120 41 50 15 99 31 110 35 53 19 182 54 320 88 220 54
263 63 305 65 39 2 46 -1 58 -25 14 -30 17 -22 -66 -156 -29 -48 -52 -100 -59
-134 -3 -15 -12 -33 -19 -39 -8 -6 -14 -22 -14 -35 0 -13 -9 -47 -20 -76 -53
-144 -54 -522 -2 -658 5 -14 10 -29 11 -35 7 -39 25 -96 32 -101 5 -3 9 -12 9
-21 0 -20 61 -141 101 -201 16 -24 29 -45 29 -48 0 -3 24 -35 54 -72 77 -97
192 -210 236 -232 21 -11 42 -24 45 -30 4 -6 24 -22 45 -35 44 -28 53 -47 42
-90 -10 -37 -32 -42 -69 -17 -15 10 -44 29 -64 43 -103 69 -249 211 -335 325
-135 178 -215 366 -260 609 -19 105 -18 451 2 476 7 8 14 32 17 54 8 60 22
117 34 140 43 79 62 160 47 199 -8 22 -57 20 -135 -3 -35 -11 -95 -27 -134
-36 -83 -19 -196 -55 -209 -67 -6 -4 -23 -8 -38 -8 -16 0 -43 -7 -59 -16 -17
-8 -79 -31 -137 -50 -59 -19 -118 -39 -132 -46 -31 -13 -50 -21 -120 -48 -30
-12 -73 -30 -95 -40 -22 -10 -69 -30 -105 -45 -97 -41 -411 -196 -445 -220
-16 -12 -66 -41 -110 -65 -44 -24 -107 -62 -141 -85 -33 -23 -70 -46 -82 -49
-12 -4 -22 -12 -22 -17 0 -5 -12 -14 -26 -20 -15 -5 -48 -27 -74 -49 -26 -22
-52 -40 -57 -40 -6 0 -18 -9 -28 -20 -10 -11 -21 -20 -26 -20 -12 0 -89 -53
-89 -61 0 -4 -20 -19 -44 -33 -41 -24 -83 -58 -162 -131 -18 -16 -45 -39 -59
-50 -15 -11 -32 -25 -39 -31 -6 -6 -45 -39 -86 -73 -136 -114 -446 -427 -532
-536 -12 -17 -38 -45 -56 -63 -69 -70 -202 -241 -202 -261 0 -6 -6 -14 -14
-18 -15 -9 -154 -197 -164 -222 -5 -14 -14 -26 -52 -68 -11 -13 -20 -27 -20
-31 0 -5 -34 -59 -75 -121 -41 -62 -84 -134 -96 -160 -13 -25 -25 -48 -28 -51
-9 -8 -33 -52 -106 -195 -36 -71 -70 -134 -76 -139 -5 -6 -9 -17 -9 -25 -1 -9
-9 -34 -20 -56 -11 -22 -19 -45 -20 -51 0 -7 -6 -14 -14 -17 -7 -3 -17 -18
-20 -34 -4 -15 -18 -53 -31 -83 -13 -30 -38 -93 -56 -140 -18 -47 -40 -104
-50 -126 -23 -53 -55 -149 -64 -194 -4 -19 -18 -58 -30 -86 -13 -29 -26 -71
-30 -95 -4 -24 -18 -82 -32 -129 -44 -149 -66 -240 -83 -334 -6 -32 -17 -86
-25 -120 -17 -74 -51 -329 -60 -446 -4 -47 -10 -89 -15 -95 -10 -14 -24 -393
-22 -600 4 -309 21 -542 58 -780 8 -49 16 -106 19 -125 2 -19 7 -51 11 -70 3
-19 8 -48 10 -63 2 -16 10 -54 18 -85 8 -31 17 -84 21 -117 4 -33 12 -71 18
-85 5 -14 13 -41 17 -60 13 -60 81 -294 91 -312 5 -10 9 -24 9 -33 0 -20 50
-167 61 -179 5 -6 9 -17 9 -25 0 -16 56 -167 95 -256 12 -27 32 -77 44 -110
13 -33 27 -67 31 -75 17 -28 70 -138 70 -144 0 -19 132 -270 156 -296 7 -9 25
-41 39 -73 15 -31 30 -57 33 -57 4 0 17 -21 29 -47 12 -27 41 -77 65 -112 24
-35 48 -71 53 -80 6 -9 37 -56 70 -104 33 -49 65 -96 70 -105 16 -27 129 -176
141 -187 7 -5 30 -36 52 -68 39 -57 58 -80 239 -282 104 -115 404 -413 480
-477 28 -24 99 -82 156 -130 58 -49 108 -88 111 -88 3 0 18 -12 33 -26 15 -14
51 -42 80 -60 28 -19 54 -41 57 -49 3 -8 13 -15 22 -15 9 0 47 -24 84 -52 38
-29 81 -61 97 -70 15 -9 71 -44 123 -77 52 -34 115 -72 140 -87 25 -14 79 -45
120 -69 135 -79 583 -295 611 -295 5 0 35 -13 67 -28 33 -16 68 -32 78 -35 11
-3 57 -20 104 -37 47 -17 101 -35 120 -41 19 -6 49 -17 67 -25 17 -8 44 -16
60 -19 15 -2 55 -13 88 -25 63 -22 152 -48 195 -56 22 -4 63 -15 165 -44 29
-8 109 -24 170 -34 17 -3 57 -10 90 -16 103 -20 162 -29 425 -61 473 -58 1031
-49 1545 25 177 26 271 43 415 76 47 11 96 20 108 20 13 0 35 6 50 14 15 7 92
30 172 50 147 37 199 53 235 73 11 6 39 14 62 18 24 4 45 11 48 16 3 4 27 15
53 23 26 8 72 24 102 36 30 12 69 26 85 31 17 6 42 17 57 25 14 8 31 14 36 14
5 0 74 31 153 69 79 37 151 71 159 75 8 3 22 10 30 15 8 5 26 14 40 20 14 7
57 29 95 50 39 21 104 55 145 76 41 21 77 41 80 45 3 4 46 33 96 63 51 31 131
82 179 114 48 32 111 73 139 90 28 18 52 37 54 43 2 5 8 10 14 10 5 0 48 32
96 70 148 120 154 125 171 134 9 5 43 32 76 60 33 28 73 62 90 76 115 95 488
473 573 579 20 25 51 60 69 77 18 17 33 34 33 38 0 4 21 33 48 65 26 32 54 68
62 81 8 12 39 52 69 88 29 37 57 75 61 87 4 11 31 49 59 84 28 35 51 70 51 77
0 7 9 18 20 24 11 6 20 19 20 30 0 10 6 23 13 27 15 10 103 149 135 215 12 26
26 50 31 53 5 3 12 18 16 34 3 16 13 35 21 42 8 7 22 26 29 43 8 17 19 38 24
46 9 14 84 170 153 320 17 36 38 81 48 100 10 19 23 53 30 75 7 22 16 45 21
50 4 6 20 46 34 90 15 44 36 100 47 125 32 75 35 83 48 130 7 25 18 63 25 85
36 108 69 225 75 265 4 25 20 83 35 130 27 84 33 110 54 245 7 39 16 86 21
105 12 46 47 297 60 435 26 259 29 326 30 620 0 330 -19 605 -60 849 -11 65
-20 131 -20 147 0 15 -9 65 -21 111 -12 46 -25 110 -29 143 -5 33 -16 83 -25
110 -9 28 -18 61 -20 75 -3 14 -14 61 -26 105 -12 44 -28 107 -36 140 -7 33
-20 74 -28 92 -8 17 -15 37 -15 45 0 7 -14 46 -30 87 -17 40 -30 81 -30 91 0
11 -4 22 -10 25 -5 3 -10 14 -10 23 0 9 -6 28 -13 42 -7 14 -21 48 -31 75 -10
28 -21 59 -26 70 -5 11 -12 31 -16 45 -10 40 -72 167 -83 175 -6 3 -11 15 -11
27 0 11 -9 31 -20 45 -11 14 -20 31 -20 38 0 7 -15 41 -34 76 -18 35 -59 114
-91 174 -31 61 -60 115 -65 120 -4 6 -22 38 -39 71 -17 34 -38 67 -46 74 -8 7
-15 16 -15 21 0 5 -20 38 -45 73 -25 36 -45 68 -46 73 0 4 -16 28 -34 53 -19
25 -42 58 -51 74 -9 16 -25 38 -35 49 -10 12 -28 38 -40 60 -11 22 -45 69 -75
104 -30 35 -54 67 -54 71 0 4 -19 29 -43 55 -23 26 -51 59 -62 73 -11 14 -27
33 -36 42 -9 10 -36 40 -59 67 -139 163 -334 364 -476 491 -134 119 -288 248
-352 294 -23 17 -50 38 -60 48 -10 9 -38 32 -62 50 -74 53 -219 156 -238 167
-9 6 -54 32 -99 58 -44 26 -87 54 -93 62 -7 8 -18 15 -25 15 -7 0 -18 6 -24
14 -6 7 -44 30 -84 50 -40 20 -85 45 -102 56 -16 11 -43 26 -60 35 -16 8 -55
28 -85 44 -116 61 -263 131 -274 131 -7 0 -17 5 -23 11 -13 13 -102 51 -188
81 -33 11 -64 24 -70 28 -5 5 -26 13 -45 18 -19 6 -60 20 -90 32 -30 12 -76
28 -102 35 -25 8 -56 18 -67 24 -11 6 -29 11 -41 11 -11 0 -38 9 -60 20 -22
11 -53 20 -69 20 -16 0 -32 4 -35 9 -8 12 -163 56 -241 69 -16 2 -34 8 -40 12
-5 4 -50 15 -100 25 -49 9 -99 20 -110 25 -11 4 -53 8 -94 7 l-75 -2 -3 -33
c-3 -24 3 -45 20 -71 13 -20 36 -62 51 -93 15 -32 31 -60 37 -63 5 -4 9 -21 9
-38 0 -18 9 -59 21 -92 31 -90 40 -155 39 -319 0 -115 -5 -168 -21 -233 -28
-117 -78 -263 -100 -295 -11 -14 -19 -28 -19 -31 0 -7 -63 -109 -85 -139 -11
-14 -27 -36 -35 -48 -8 -13 -31 -37 -50 -56 -19 -18 -66 -62 -105 -98 -94 -89
-121 -89 -109 3 4 34 12 52 23 56 25 8 81 67 196 206 30 36 55 72 55 79 0 7
11 25 25 42 14 16 25 36 25 44 0 8 7 29 16 45 8 17 31 88 50 157 32 117 35
137 35 272 0 136 -3 168 -31 280 -14 58 -50 151 -67 171 -7 8 -13 22 -13 30 0
28 -149 242 -194 280 -22 18 -25 77 -4 90 19 13 40 11 173 -11z m470 -371 c44
-11 96 -26 115 -33 19 -8 64 -21 100 -30 133 -32 334 -100 432 -144 26 -12 51
-22 55 -22 10 0 214 -84 251 -104 15 -7 77 -37 137 -66 151 -72 218 -106 300
-154 39 -23 90 -52 115 -65 25 -13 81 -48 126 -77 44 -30 83 -54 87 -54 3 0
34 -19 67 -42 34 -24 75 -51 93 -62 18 -10 49 -32 69 -50 52 -45 129 -101 158
-116 14 -7 34 -21 45 -31 11 -10 67 -57 125 -105 58 -48 107 -91 109 -96 2 -5
14 -13 27 -18 13 -5 24 -16 24 -24 0 -7 11 -17 25 -20 14 -4 25 -11 25 -17 0
-5 23 -31 52 -57 61 -56 141 -135 222 -221 32 -34 69 -69 82 -78 13 -8 24 -20
24 -27 0 -6 9 -17 20 -24 11 -7 20 -16 20 -22 0 -5 10 -20 23 -33 135 -145
332 -401 474 -617 23 -36 54 -80 68 -99 14 -19 25 -40 25 -48 0 -7 4 -13 9
-13 6 0 24 -28 41 -62 18 -35 41 -75 51 -90 10 -14 19 -30 19 -36 0 -5 6 -15
13 -21 12 -9 63 -105 81 -151 3 -8 10 -22 15 -30 5 -8 31 -62 59 -120 28 -58
69 -143 91 -189 23 -46 41 -90 41 -98 0 -8 8 -33 18 -56 28 -64 48 -115 77
-197 15 -41 33 -86 40 -100 7 -14 16 -43 20 -64 5 -22 14 -51 21 -65 8 -14 14
-34 14 -44 0 -10 6 -30 13 -45 8 -15 20 -56 27 -92 7 -36 19 -77 27 -92 7 -15
13 -36 13 -48 0 -11 4 -28 9 -38 5 -9 17 -60 27 -112 9 -52 21 -115 26 -140 4
-25 12 -70 18 -100 5 -30 14 -77 19 -105 6 -27 17 -104 25 -170 8 -66 17 -127
20 -135 3 -8 12 -132 21 -275 16 -271 18 -467 4 -645 -5 -58 -11 -145 -14
-195 -7 -100 -27 -269 -51 -420 -8 -55 -18 -124 -21 -152 -3 -29 -12 -58 -19
-64 -8 -6 -14 -23 -14 -37 0 -38 -20 -136 -48 -232 -13 -47 -28 -103 -32 -125
-4 -22 -15 -67 -25 -100 -9 -33 -25 -91 -35 -130 -10 -38 -28 -89 -39 -112
-12 -23 -21 -49 -21 -57 0 -8 -13 -43 -28 -78 -29 -63 -41 -93 -82 -203 -60
-161 -256 -562 -294 -604 -9 -10 -16 -22 -16 -28 0 -6 -21 -46 -46 -89 -48
-82 -55 -92 -118 -183 -21 -29 -42 -66 -48 -81 -5 -16 -16 -31 -24 -34 -8 -3
-14 -11 -14 -17 0 -7 -26 -46 -57 -88 -89 -117 -101 -134 -118 -164 -9 -15
-24 -36 -33 -46 -9 -10 -24 -28 -32 -40 -8 -13 -26 -35 -40 -50 -26 -29 -73
-83 -181 -210 -76 -89 -371 -389 -449 -455 -83 -71 -114 -97 -161 -138 -60
-50 -235 -187 -284 -221 -22 -16 -67 -48 -100 -72 -33 -24 -91 -63 -130 -87
-38 -23 -90 -56 -115 -73 -100 -69 -431 -257 -490 -279 -8 -3 -22 -10 -30 -15
-24 -15 -179 -86 -250 -115 -36 -15 -73 -31 -82 -36 -10 -6 -24 -10 -32 -10
-8 0 -27 -6 -43 -14 -126 -62 -546 -206 -601 -206 -20 0 -137 -36 -163 -50 -9
-4 -51 -13 -94 -20 -43 -7 -90 -17 -104 -22 -14 -6 -66 -17 -116 -24 -49 -7
-119 -18 -155 -24 -130 -22 -278 -41 -395 -50 -66 -4 -192 -14 -280 -21 -218
-17 -677 4 -960 44 -211 30 -391 60 -410 67 -11 5 -38 11 -60 14 -99 13 -176
29 -250 52 -44 13 -93 28 -110 33 -96 27 -192 57 -280 87 -55 19 -108 34 -117
34 -10 0 -18 5 -18 10 0 6 -7 10 -15 10 -14 0 -223 78 -261 98 -51 26 -116 52
-129 52 -8 0 -15 4 -15 9 0 5 -10 13 -22 16 -27 8 -119 52 -175 85 -10 6 -27
14 -38 19 -91 40 -232 114 -247 131 -10 11 -27 20 -37 20 -10 0 -30 9 -44 20
-14 11 -30 20 -36 20 -6 0 -25 12 -43 28 -40 33 -63 48 -104 67 -17 7 -36 21
-44 29 -7 9 -18 16 -25 16 -7 0 -19 7 -26 17 -8 9 -36 32 -64 50 -27 19 -75
52 -105 74 -30 22 -66 47 -80 57 -52 35 -105 78 -118 94 -7 10 -18 18 -24 18
-6 0 -22 11 -37 25 -43 42 -142 129 -211 186 -148 122 -501 494 -630 664 -65
85 -95 124 -133 169 -15 19 -27 37 -27 41 0 3 -15 25 -34 48 -18 23 -41 57
-50 74 -9 18 -20 33 -24 33 -5 0 -21 20 -36 45 -16 25 -35 50 -42 56 -8 6 -14
20 -14 30 0 10 -8 26 -18 36 -20 21 -72 99 -72 110 0 8 -72 133 -101 175 -11
15 -19 34 -19 42 0 8 -6 21 -14 28 -7 8 -55 99 -105 204 -51 104 -101 206
-111 226 -11 20 -20 45 -20 55 0 11 -4 23 -10 29 -5 5 -18 34 -29 64 -10 30
-33 91 -51 135 -46 117 -79 213 -95 274 -13 52 -49 163 -65 206 -12 31 -40
157 -40 181 0 12 -7 27 -15 34 -8 7 -15 25 -15 40 0 34 -19 139 -30 165 -5 11
-11 38 -13 60 -3 22 -17 121 -30 220 -41 299 -48 370 -58 625 -10 258 3 728
21 776 6 14 10 45 10 69 0 24 11 108 24 187 13 79 29 183 36 233 7 49 17 103
22 120 5 16 12 44 14 60 3 17 12 55 20 86 8 31 14 70 14 86 0 16 4 33 9 38 4
6 21 53 36 105 15 52 52 168 81 256 30 89 54 170 54 181 0 10 6 27 14 38 7 11
28 58 46 105 18 47 43 109 56 138 13 29 24 57 24 63 0 9 27 65 52 109 5 8 11
23 15 34 3 10 16 37 28 60 12 23 27 51 32 61 38 77 57 113 112 210 34 61 67
117 72 125 5 8 16 29 24 46 7 17 21 36 29 44 9 7 16 17 16 22 0 8 37 65 50 78
3 3 25 37 48 75 24 39 61 95 83 125 22 30 48 66 57 80 29 45 104 135 118 143
8 4 14 14 14 21 0 8 19 36 43 62 24 27 61 72 83 99 40 51 70 84 204 228 119
128 182 189 415 403 22 20 60 53 85 72 25 20 62 53 83 74 21 21 42 38 47 38 6
0 43 27 84 60 41 33 77 60 81 60 7 0 49 32 85 63 8 8 33 24 55 37 22 13 44 30
48 37 4 7 18 13 31 13 13 0 29 7 36 15 14 17 97 75 107 75 3 0 21 11 39 25 18
14 43 30 56 35 13 6 40 20 60 33 99 59 296 166 318 172 14 4 32 13 40 20 18
15 173 85 188 85 5 0 15 7 22 15 7 8 19 15 28 15 8 0 36 10 61 21 25 12 55 25
66 29 53 21 132 52 150 60 11 5 79 28 150 51 72 22 145 47 163 55 18 8 40 14
49 14 8 0 44 10 80 22 89 31 98 23 98 -75 -1 -42 -6 -86 -12 -99 -18 -37 -23
-281 -8 -419 15 -128 52 -297 80 -351 8 -17 15 -37 15 -45 0 -7 11 -31 25 -53
14 -22 25 -45 25 -51 0 -6 20 -45 45 -86 25 -40 45 -78 45 -84 0 -5 11 -20 24
-32 14 -13 55 -61 93 -108 37 -47 100 -113 138 -146 79 -67 216 -163 233 -163
6 0 15 -6 19 -13 4 -7 22 -19 40 -26 45 -18 65 -45 69 -91 4 -38 3 -40 -25
-40 -17 0 -33 5 -36 10 -4 6 -21 17 -38 25 -72 33 -246 144 -286 182 -13 13
-27 23 -32 23 -4 0 -11 9 -14 20 -3 11 -13 20 -20 20 -8 0 -18 6 -22 14 -4 8
-38 48 -75 88 -77 83 -83 91 -119 138 -36 50 -134 227 -155 280 -9 25 -23 52
-31 61 -7 8 -13 23 -13 31 0 9 -9 40 -19 70 -21 58 -30 91 -58 213 -15 67 -18
120 -17 320 1 167 -2 242 -10 247 -16 11 -61 10 -93 -3 -15 -6 -37 -15 -48
-20 -11 -4 -45 -15 -75 -25 -122 -37 -315 -113 -435 -169 -16 -8 -64 -28 -106
-45 -42 -17 -115 -53 -162 -80 -48 -28 -90 -50 -94 -50 -3 0 -27 -13 -52 -29
-26 -15 -58 -32 -72 -36 -13 -4 -48 -23 -77 -41 -29 -19 -56 -34 -61 -34 -5 0
-15 -7 -22 -17 -8 -9 -33 -25 -56 -35 -24 -10 -43 -23 -43 -28 0 -6 -5 -10
-11 -10 -18 0 -212 -128 -317 -210 -54 -41 -117 -88 -142 -105 -62 -41 -74
-52 -143 -117 -33 -32 -64 -58 -68 -58 -5 0 -42 -33 -84 -72 -41 -40 -94 -89
-117 -108 -22 -19 -91 -87 -152 -150 -202 -208 -226 -235 -226 -248 0 -6 -6
-15 -12 -19 -23 -15 -194 -222 -303 -368 -8 -11 -26 -34 -40 -51 -14 -18 -25
-36 -25 -41 0 -5 -13 -24 -30 -43 -16 -19 -29 -40 -30 -46 0 -6 -9 -21 -20
-34 -11 -13 -20 -29 -20 -37 0 -7 -4 -13 -10 -13 -5 0 -21 -21 -36 -47 -15
-27 -41 -70 -59 -98 -33 -50 -52 -84 -79 -140 -8 -16 -24 -41 -35 -54 -12 -13
-21 -32 -21 -43 0 -10 -15 -40 -34 -66 -18 -27 -37 -59 -41 -73 -4 -13 -24
-58 -45 -99 -20 -41 -41 -86 -45 -100 -4 -14 -25 -61 -45 -105 -84 -182 -150
-353 -150 -389 0 -12 -4 -26 -9 -31 -9 -11 -86 -234 -85 -250 0 -5 -8 -32 -17
-60 -9 -27 -22 -77 -29 -110 -7 -33 -19 -79 -26 -103 -8 -23 -14 -57 -14 -75
0 -18 -4 -37 -8 -42 -5 -6 -17 -55 -26 -110 -9 -55 -23 -134 -31 -175 -16 -84
-32 -205 -39 -295 -3 -33 -10 -114 -17 -180 -16 -161 -6 -831 15 -1013 23
-205 37 -295 47 -314 5 -10 9 -31 9 -47 0 -35 43 -256 71 -360 10 -41 19 -83
19 -92 0 -10 16 -64 35 -122 19 -57 35 -113 35 -123 0 -11 12 -41 25 -69 14
-27 25 -58 25 -68 0 -9 4 -25 10 -35 5 -9 21 -53 34 -97 25 -81 68 -203 84
-240 5 -11 28 -58 50 -105 42 -90 99 -211 126 -270 8 -19 19 -42 24 -50 10
-16 21 -39 55 -103 11 -23 24 -44 27 -47 4 -3 12 -20 18 -37 6 -18 16 -38 22
-45 18 -23 54 -80 110 -178 30 -52 58 -98 63 -101 5 -3 16 -18 25 -32 51 -77
177 -258 205 -292 18 -22 68 -84 112 -139 44 -54 95 -117 113 -140 18 -22 104
-115 190 -204 86 -90 159 -168 160 -173 2 -5 8 -9 13 -9 6 0 50 -39 99 -87 49
-49 106 -101 127 -118 20 -16 48 -41 62 -54 22 -21 120 -97 244 -188 21 -15
46 -35 55 -44 9 -8 51 -38 92 -65 41 -27 84 -56 95 -66 11 -9 58 -40 105 -69
47 -28 99 -60 115 -70 17 -10 50 -30 75 -44 25 -14 60 -34 78 -45 64 -39 363
-190 375 -190 7 0 18 -5 24 -11 6 -6 35 -22 65 -34 29 -13 107 -46 173 -75 66
-28 129 -54 140 -57 11 -2 29 -9 40 -13 47 -21 168 -60 182 -60 9 0 24 -6 32
-13 29 -25 302 -98 546 -146 88 -17 185 -36 215 -42 30 -6 106 -19 170 -29 63
-10 126 -20 140 -23 163 -33 962 -46 1200 -19 209 23 425 54 445 62 11 5 56
14 100 20 97 14 262 52 500 115 106 28 491 159 508 173 7 5 30 15 52 22 22 7
55 21 73 32 18 10 37 18 42 18 5 0 47 18 94 40 47 22 89 40 94 40 5 0 58 26
118 59 60 32 126 64 147 70 20 7 37 17 37 22 0 5 28 22 63 39 65 32 99 51 107
61 3 4 23 16 46 27 22 11 46 28 53 36 8 9 19 16 26 16 6 0 20 9 30 20 10 11
23 20 28 20 6 0 20 8 31 18 12 10 62 42 111 72 50 30 95 59 102 65 6 5 33 27
60 48 95 74 289 231 333 270 245 215 385 357 579 582 57 66 116 134 130 150
15 17 36 45 46 63 11 17 22 32 26 32 4 0 12 14 19 30 7 17 21 35 31 41 11 5
19 16 19 24 0 8 9 19 19 25 11 5 23 20 27 32 4 13 21 41 38 63 18 22 40 51 49
65 73 107 97 145 97 152 0 5 5 14 10 21 18 21 88 135 122 197 18 33 45 82 60
108 15 26 35 64 44 85 9 20 21 37 26 37 4 0 8 5 8 10 0 6 23 59 51 118 57 120
60 126 89 202 12 30 30 72 41 93 20 37 90 227 109 292 9 34 29 90 41 120 5 11
20 59 33 107 14 48 29 95 35 105 5 10 19 65 31 123 12 58 30 141 41 185 18 78
46 220 55 280 2 17 11 71 19 120 46 291 72 777 55 1035 -18 270 -20 302 -36
455 -17 170 -32 271 -44 300 -5 11 -11 46 -14 79 -4 32 -10 66 -15 75 -4 9
-18 70 -31 136 -37 198 -112 462 -156 547 -8 14 -14 38 -14 52 0 14 -4 26 -9
26 -5 0 -11 15 -15 33 -6 31 -34 110 -62 174 -8 17 -14 36 -14 42 0 6 -13 37
-29 68 -16 32 -44 94 -62 138 -34 81 -45 103 -136 275 -99 186 -126 235 -138
250 -7 8 -20 31 -29 50 -22 47 -57 103 -78 124 -10 10 -18 21 -18 26 0 5 -14
29 -30 52 -17 24 -38 54 -47 68 -10 14 -31 43 -48 65 -16 21 -34 46 -40 55
-24 39 -52 79 -80 114 -67 83 -75 94 -75 100 0 3 -20 26 -45 52 -25 25 -45 49
-45 52 0 6 -46 61 -98 117 -10 11 -47 54 -82 95 -36 41 -74 83 -85 93 -11 10
-88 84 -172 165 -83 81 -186 174 -228 207 -41 33 -92 74 -112 91 -67 60 -73
64 -83 64 -6 0 -13 6 -16 14 -3 8 -24 27 -47 43 -23 15 -48 36 -55 46 -7 9
-19 17 -26 17 -8 0 -19 7 -26 15 -7 9 -50 40 -94 69 -45 30 -88 61 -95 70 -7
9 -20 16 -28 16 -8 0 -33 13 -56 28 -23 16 -68 43 -99 61 -32 18 -58 37 -58
42 0 5 -8 9 -17 9 -9 0 -24 6 -32 14 -16 14 -112 66 -261 143 -47 24 -92 48
-100 52 -8 4 -31 15 -50 24 -19 8 -64 29 -100 45 -36 17 -77 33 -92 36 -16 4
-28 11 -28 16 0 6 -7 10 -15 10 -9 0 -42 14 -75 30 -33 17 -66 30 -73 30 -8 0
-36 8 -63 19 -159 61 -343 121 -370 121 -11 0 -24 3 -27 6 -4 4 -30 15 -59 25
-67 23 -146 25 -155 3 -3 -8 2 -90 11 -182 18 -178 12 -298 -19 -425 -8 -32
-15 -69 -15 -81 0 -13 -3 -25 -6 -29 -3 -3 -19 -45 -35 -94 -30 -89 -43 -118
-82 -185 -12 -20 -33 -56 -46 -80 -44 -82 -271 -338 -299 -338 -5 0 -24 -14
-43 -30 -19 -17 -42 -37 -51 -45 -27 -22 -108 -57 -126 -53 -43 8 -8 109 44
128 56 22 216 163 288 255 22 27 43 52 46 55 4 3 15 19 24 35 10 17 28 48 41
70 34 57 115 225 115 238 0 7 10 41 22 77 31 95 40 159 45 315 5 172 -19 354
-55 422 -21 38 -15 89 11 100 24 12 46 10 162 -18z m277 -360 c95 -32 217 -75
253 -90 11 -4 36 -14 55 -22 19 -8 71 -29 115 -47 208 -84 406 -181 611 -298
231 -133 261 -152 274 -167 7 -8 19 -15 26 -15 13 0 91 -53 125 -85 9 -8 20
-15 26 -15 5 0 23 -11 39 -25 71 -63 125 -104 144 -110 11 -3 20 -10 20 -14 0
-4 32 -32 71 -62 159 -121 385 -330 569 -525 91 -96 254 -283 259 -296 2 -6
10 -18 18 -27 23 -25 146 -185 163 -211 8 -13 27 -38 43 -55 15 -18 27 -36 27
-40 0 -4 14 -24 31 -46 16 -21 44 -64 61 -96 16 -32 39 -67 49 -79 10 -11 19
-24 19 -28 0 -5 17 -34 38 -66 45 -70 59 -95 130 -230 30 -58 63 -116 73 -129
11 -13 19 -31 19 -40 0 -10 4 -21 9 -27 5 -5 21 -40 37 -79 15 -38 33 -76 41
-83 7 -7 13 -18 13 -25 0 -10 29 -79 50 -119 5 -9 26 -65 46 -125 20 -59 42
-121 49 -138 27 -66 64 -173 79 -230 8 -33 36 -139 61 -235 25 -96 48 -191 51
-211 2 -20 11 -67 20 -105 16 -69 28 -143 38 -219 2 -22 7 -53 11 -70 5 -27
15 -116 29 -255 16 -153 26 -470 21 -615 -10 -263 -34 -569 -55 -684 -42 -232
-55 -301 -81 -411 -17 -69 -36 -147 -44 -175 -7 -27 -19 -70 -25 -95 -6 -25
-25 -86 -41 -137 -16 -50 -29 -96 -29 -102 0 -6 -8 -30 -19 -54 -10 -23 -31
-80 -46 -127 -14 -47 -40 -113 -56 -148 -16 -34 -29 -71 -29 -81 0 -11 -4 -23
-10 -26 -9 -5 -60 -108 -60 -120 0 -3 -22 -53 -50 -111 -27 -58 -50 -109 -50
-113 0 -3 -12 -24 -27 -46 -16 -22 -40 -62 -54 -90 -52 -101 -91 -171 -113
-205 -13 -19 -37 -57 -55 -85 -41 -65 -43 -68 -96 -145 -25 -36 -45 -70 -45
-76 0 -7 -7 -14 -15 -17 -8 -4 -23 -24 -35 -47 -11 -22 -24 -40 -28 -40 -4 0
-32 -33 -61 -74 -29 -41 -63 -84 -77 -97 -13 -12 -24 -28 -24 -34 0 -7 -34
-48 -75 -91 -42 -43 -90 -98 -107 -121 -17 -24 -42 -50 -55 -58 -12 -9 -23
-20 -23 -26 0 -15 -268 -277 -385 -376 -33 -28 -78 -67 -100 -88 -22 -20 -56
-47 -76 -60 -19 -13 -64 -48 -100 -79 -35 -31 -74 -59 -86 -62 -13 -4 -23 -12
-23 -19 0 -7 -13 -17 -28 -23 -16 -5 -35 -16 -43 -23 -28 -27 -129 -99 -154
-111 -14 -6 -25 -15 -25 -20 0 -4 -7 -8 -15 -8 -8 0 -25 -10 -37 -22 -13 -13
-39 -31 -58 -40 -19 -10 -79 -45 -133 -78 -55 -33 -102 -60 -105 -60 -4 0 -20
-7 -37 -16 -249 -132 -509 -251 -660 -304 -372 -128 -600 -195 -775 -225 -41
-7 -95 -18 -120 -24 -55 -13 -203 -40 -250 -45 -19 -3 -48 -7 -65 -10 -179
-32 -667 -63 -806 -52 -35 3 -138 8 -229 11 -247 8 -525 42 -750 91 -63 14
-149 32 -190 41 -41 8 -103 24 -137 34 -34 11 -71 19 -82 19 -11 0 -30 4 -43
9 -13 5 -57 19 -98 32 -41 12 -88 27 -105 34 -16 7 -48 18 -70 25 -22 7 -58
20 -80 28 -22 8 -72 25 -112 37 -39 13 -96 35 -126 49 -29 14 -58 26 -63 26
-5 0 -69 29 -144 65 -214 104 -260 127 -265 135 -3 4 -16 11 -29 14 -13 3 -56
25 -95 48 -40 24 -91 54 -115 68 -24 14 -62 37 -85 53 -23 15 -63 40 -90 55
-27 15 -85 54 -131 87 -45 33 -91 65 -103 72 -12 7 -53 37 -92 68 -38 30 -97
75 -130 100 -33 25 -80 63 -103 85 -24 22 -46 40 -48 40 -7 0 -207 186 -313
291 -95 95 -337 351 -341 363 -3 7 -11 19 -18 27 -11 12 -61 78 -155 204 -81
109 -107 146 -107 153 0 5 -8 17 -19 28 -22 24 -91 122 -91 129 0 6 -7 16 -68
107 -18 25 -32 51 -32 56 0 5 -7 15 -15 22 -8 7 -15 21 -15 30 0 10 -11 31
-23 47 -42 49 -167 288 -167 317 0 7 -7 19 -15 26 -8 7 -15 18 -15 26 0 7 -22
56 -50 110 -27 54 -50 103 -50 109 0 7 -9 34 -21 61 -11 27 -24 58 -29 69 -4
11 -15 40 -23 65 -8 25 -27 77 -42 115 -58 151 -134 410 -135 457 0 15 -4 29
-9 32 -5 4 -12 25 -16 49 -10 57 -12 65 -25 117 -6 25 -15 68 -20 97 -4 28
-11 56 -14 61 -3 5 -8 28 -11 52 -3 24 -9 48 -14 54 -4 6 -9 49 -10 95 -1 46
-6 91 -10 100 -8 14 -20 115 -27 211 -27 406 -28 441 -15 706 7 148 15 285 17
304 2 19 11 91 18 160 25 214 36 278 92 515 30 127 58 244 63 260 5 17 16 57
25 90 25 90 76 245 96 290 9 22 25 65 35 95 22 69 72 197 91 232 8 14 14 33
14 42 0 8 11 32 25 52 14 21 28 49 32 63 11 44 130 270 258 490 83 141 90 152
178 283 42 64 77 118 77 122 0 3 8 14 18 25 33 36 87 103 114 143 28 41 96
124 134 162 12 11 44 49 71 82 91 112 366 393 450 460 26 22 65 55 87 74 78
70 123 107 243 203 27 20 64 50 83 66 19 15 46 34 59 40 12 7 53 35 90 62 37
27 72 49 78 49 5 0 19 11 31 25 12 14 30 25 40 25 10 0 29 11 42 25 13 14 28
25 32 25 5 0 29 13 53 30 23 16 75 45 113 65 39 19 74 40 77 45 3 6 13 10 22
10 9 0 24 6 32 14 24 21 182 102 259 132 37 15 94 40 127 56 154 75 402 168
447 168 28 0 39 -27 43 -106 10 -162 34 -330 59 -414 8 -25 22 -72 32 -105 9
-33 21 -67 25 -75 4 -8 28 -58 54 -110 74 -151 127 -236 198 -320 6 -8 25 -30
40 -50 30 -37 189 -201 229 -235 20 -18 80 -59 130 -90 91 -56 230 -133 249
-138 43 -11 60 -31 62 -71 3 -65 -16 -67 -129 -11 -55 27 -124 66 -154 87 -30
21 -58 38 -63 38 -9 0 -95 59 -157 108 -37 29 -135 127 -248 247 -60 64 -252
362 -252 391 0 6 -12 34 -26 63 -14 30 -42 106 -64 170 -34 105 -46 160 -82
386 -12 77 -22 95 -48 95 -18 0 -96 -29 -166 -61 -23 -10 -44 -19 -47 -19 -3
0 -45 -18 -92 -40 -47 -22 -88 -40 -90 -40 -17 0 -418 -209 -480 -249 -42 -28
-80 -51 -84 -51 -5 0 -53 -30 -107 -67 -55 -37 -126 -85 -159 -107 -124 -85
-335 -249 -410 -321 -27 -26 -66 -59 -85 -74 -48 -36 -418 -405 -466 -464 -21
-27 -65 -79 -97 -115 -32 -37 -70 -86 -85 -110 -15 -24 -44 -61 -64 -82 -21
-21 -38 -42 -38 -45 0 -4 -30 -48 -68 -99 -81 -111 -88 -121 -108 -168 -9 -21
-22 -38 -30 -38 -8 0 -14 -7 -14 -15 0 -8 -9 -24 -20 -35 -11 -11 -20 -24 -20
-29 0 -6 -17 -38 -38 -73 -46 -77 -63 -107 -100 -178 -16 -30 -42 -77 -57
-105 -48 -88 -63 -119 -95 -190 -17 -38 -40 -88 -50 -110 -41 -92 -70 -167
-70 -184 0 -9 -4 -21 -9 -26 -8 -9 -23 -43 -70 -160 -12 -31 -49 -151 -72
-240 -24 -88 -45 -163 -84 -300 -14 -49 -28 -99 -30 -110 -6 -29 -22 -133 -30
-185 -3 -25 -10 -63 -15 -85 -13 -63 -28 -170 -39 -290 -6 -60 -14 -139 -18
-175 -5 -36 -8 -227 -8 -425 0 -338 9 -505 35 -678 5 -39 15 -103 20 -142 18
-141 85 -471 100 -497 6 -10 10 -25 10 -33 0 -8 8 -41 19 -72 10 -32 24 -78
31 -103 23 -83 72 -235 86 -268 8 -18 14 -39 14 -46 0 -8 14 -41 30 -74 17
-34 30 -66 30 -71 0 -6 12 -36 26 -68 14 -32 32 -78 41 -103 8 -25 21 -52 29
-61 8 -8 14 -19 14 -22 0 -18 115 -255 153 -314 15 -24 27 -49 27 -57 0 -7 7
-19 15 -26 8 -7 15 -16 15 -21 0 -5 17 -34 38 -65 20 -31 41 -64 47 -73 103
-168 245 -380 298 -445 27 -32 59 -75 72 -95 12 -20 51 -69 86 -108 35 -39 80
-90 99 -114 82 -101 241 -269 255 -269 4 0 37 -30 73 -68 88 -89 259 -245 298
-272 27 -18 142 -105 169 -128 11 -9 54 -40 95 -70 41 -30 84 -62 95 -71 11
-10 27 -21 35 -25 8 -3 29 -15 45 -26 17 -11 43 -27 59 -36 15 -8 57 -36 93
-60 35 -24 67 -44 71 -44 4 0 23 -11 43 -24 34 -23 123 -73 199 -112 19 -9 42
-21 50 -26 8 -4 26 -13 40 -19 14 -6 32 -15 40 -20 18 -10 45 -23 175 -85 104
-48 145 -65 280 -115 44 -16 94 -35 110 -43 17 -8 50 -20 75 -27 25 -7 50 -16
56 -21 15 -11 110 -38 148 -43 16 -2 38 -8 50 -13 12 -6 55 -19 96 -30 405
-107 812 -164 1250 -178 220 -7 620 9 785 32 240 33 313 44 395 59 130 23 131
23 247 54 315 85 526 149 599 182 22 11 46 19 52 19 7 0 20 5 30 10 23 14 160
69 198 81 18 5 37 16 44 24 7 8 19 15 27 15 24 0 348 163 478 241 17 10 64 37
105 61 41 23 110 66 153 95 43 29 80 53 83 53 5 0 23 14 54 42 10 9 32 24 47
32 15 8 56 37 90 65 34 27 75 57 92 66 17 8 31 19 31 24 0 5 17 20 38 34 20
14 48 36 62 49 14 12 70 63 125 113 55 49 125 114 156 145 30 30 87 85 125
122 88 85 181 187 239 262 26 33 57 71 70 85 41 43 89 104 120 151 16 25 43
59 58 75 33 34 107 142 152 220 17 28 38 60 48 69 9 10 17 23 17 30 0 7 9 21
20 31 11 10 20 24 20 30 0 7 7 18 16 25 8 8 22 27 29 44 8 17 28 54 44 81 16
28 46 82 65 120 19 39 44 86 55 105 11 19 43 85 71 145 28 61 58 124 65 140 8
17 26 62 40 100 14 39 32 84 40 100 29 64 65 164 65 182 0 11 4 23 9 29 13 14
77 216 101 324 9 37 24 93 59 223 21 76 35 147 61 307 7 41 18 110 26 154 8
43 14 112 14 153 0 41 5 83 10 94 14 24 20 619 10 834 -4 88 -15 216 -24 285
-30 226 -45 334 -54 380 -25 123 -37 175 -43 180 -4 3 -9 23 -11 45 -5 42 -25
126 -39 160 -4 11 -22 74 -39 140 -18 66 -38 136 -45 155 -7 19 -21 60 -30 90
-14 45 -61 172 -115 305 -4 11 -23 54 -43 95 -19 41 -42 91 -51 110 -9 19 -30
60 -46 90 -16 30 -34 66 -40 80 -5 14 -14 32 -20 40 -5 8 -15 26 -20 40 -28
67 -202 361 -225 380 -8 7 -15 17 -15 22 0 5 -19 37 -42 71 -24 34 -47 69 -53
78 -10 17 -74 105 -125 174 -17 22 -41 52 -55 68 -14 15 -25 31 -25 35 0 5
-19 28 -42 53 -24 24 -59 65 -78 89 -19 25 -53 65 -77 90 -23 25 -71 77 -107
115 -36 39 -73 79 -84 90 -68 73 -275 265 -312 290 -24 17 -52 37 -60 45 -83
77 -135 119 -230 185 -30 20 -64 46 -75 56 -22 21 -274 189 -282 189 -3 0 -40
22 -82 48 -42 27 -83 52 -91 55 -8 4 -33 18 -55 32 -22 13 -68 38 -102 55 -33
17 -67 37 -73 45 -7 8 -16 15 -21 15 -4 0 -55 23 -113 50 -58 28 -108 50 -111
50 -8 0 -93 38 -138 62 -21 11 -41 18 -44 15 -3 -3 -39 10 -81 29 -43 19 -111
46 -152 60 -41 14 -80 30 -87 35 -6 6 -31 9 -54 7 -52 -4 -51 1 -75 -213 -9
-82 -20 -154 -23 -160 -4 -5 -16 -37 -26 -70 -28 -93 -36 -118 -50 -150 -23
-54 -135 -276 -145 -288 -34 -40 -70 -91 -70 -98 0 -5 -26 -35 -57 -67 -32
-33 -69 -73 -82 -89 -13 -16 -43 -45 -68 -64 -25 -19 -64 -50 -86 -70 -86 -73
-289 -192 -321 -187 -16 2 -22 11 -24 36 -4 39 28 74 101 110 26 13 49 27 52
33 4 5 21 16 38 24 67 32 91 52 226 185 114 113 167 177 213 260 14 25 35 61
46 80 12 19 26 44 31 55 5 11 19 43 31 70 12 28 26 59 32 70 6 11 15 33 19 50
4 16 12 44 18 60 5 17 15 55 20 85 6 30 17 87 26 127 9 43 15 124 15 203 0
126 1 131 23 140 35 14 51 12 149 -21z m148 -338 c223 -84 454 -186 530 -232
8 -5 40 -22 70 -38 112 -58 134 -71 144 -81 5 -5 16 -10 24 -10 8 0 24 -8 37
-17 12 -10 31 -24 41 -30 11 -7 36 -24 57 -38 21 -14 53 -31 70 -39 18 -7 38
-20 46 -29 7 -10 18 -17 23 -17 8 0 151 -95 180 -120 7 -6 51 -39 98 -75 47
-35 92 -71 101 -80 9 -8 18 -15 22 -15 6 0 43 -31 87 -75 14 -14 29 -25 33
-25 28 0 536 -506 571 -568 5 -10 38 -48 73 -87 35 -38 63 -74 63 -80 0 -6 12
-22 26 -36 15 -13 36 -40 49 -59 12 -19 36 -50 54 -69 17 -18 31 -42 31 -52 0
-10 4 -19 9 -19 6 0 31 -31 57 -70 26 -38 50 -70 55 -70 4 0 11 -10 15 -22 3
-12 21 -44 38 -72 17 -28 38 -64 46 -81 8 -16 18 -32 21 -35 4 -3 22 -34 40
-69 42 -80 93 -173 147 -273 23 -43 42 -82 42 -89 0 -6 17 -48 39 -92 21 -45
44 -98 51 -117 7 -19 21 -55 33 -80 59 -131 55 -122 157 -450 23 -74 48 -153
55 -175 7 -22 18 -71 25 -110 6 -38 20 -108 30 -155 28 -131 44 -233 69 -445
7 -55 16 -130 21 -167 13 -91 13 -727 -1 -863 -17 -177 -27 -252 -48 -385 -34
-219 -49 -293 -70 -367 -12 -40 -21 -83 -21 -95 0 -13 -6 -35 -14 -50 -8 -14
-22 -61 -31 -105 -9 -43 -27 -107 -40 -143 -13 -36 -29 -85 -36 -110 -7 -25
-23 -67 -35 -95 -12 -27 -35 -86 -52 -130 -39 -104 -85 -209 -135 -315 -22
-47 -46 -98 -54 -115 -8 -16 -32 -61 -53 -100 -22 -38 -57 -105 -77 -147 -21
-43 -46 -80 -55 -84 -10 -3 -18 -15 -18 -28 0 -12 -7 -31 -15 -41 -8 -11 -49
-72 -90 -135 -42 -63 -80 -116 -86 -118 -5 -2 -9 -10 -9 -17 0 -8 -8 -22 -18
-32 -10 -10 -58 -72 -108 -138 -49 -66 -108 -140 -131 -165 -24 -25 -43 -47
-43 -50 0 -3 -23 -30 -51 -60 -29 -30 -90 -99 -136 -152 -47 -54 -89 -98 -93
-98 -4 0 -52 -44 -107 -97 -133 -132 -247 -232 -310 -272 -28 -18 -53 -36 -55
-40 -8 -20 -141 -118 -208 -154 -19 -11 -44 -27 -55 -37 -27 -25 -84 -66 -120
-86 -16 -9 -34 -23 -38 -30 -4 -8 -14 -14 -22 -14 -7 0 -36 -15 -64 -33 -116
-75 -192 -119 -281 -164 -179 -90 -315 -153 -331 -153 -9 0 -22 -7 -29 -15 -7
-8 -21 -15 -31 -15 -9 0 -24 -7 -33 -15 -8 -8 -23 -15 -33 -15 -10 0 -35 -9
-56 -20 -20 -11 -45 -20 -55 -20 -10 0 -22 -4 -28 -10 -10 -10 -99 -43 -178
-66 -28 -8 -92 -27 -142 -44 -51 -16 -101 -30 -112 -30 -10 0 -22 -3 -26 -7
-15 -15 -305 -82 -356 -83 -19 0 -53 -7 -76 -15 -22 -7 -99 -21 -170 -29 -71
-9 -178 -22 -239 -30 -60 -8 -150 -18 -200 -21 -133 -11 -657 -7 -739 4 -39 6
-120 15 -181 21 -60 7 -123 15 -140 20 -16 5 -70 13 -120 18 -49 6 -137 20
-195 31 -58 12 -128 25 -157 30 -49 9 -104 24 -148 42 -11 4 -56 18 -100 30
-44 12 -100 28 -125 35 -48 13 -162 52 -195 65 -11 5 -49 18 -85 30 -36 11
-85 31 -110 43 -25 13 -64 29 -85 35 -56 18 -118 46 -270 124 -16 9 -37 18
-45 21 -8 3 -22 10 -30 14 -22 13 -65 35 -157 82 -46 23 -103 57 -127 76 -25
19 -51 34 -59 34 -8 0 -20 7 -27 15 -7 8 -18 15 -24 15 -6 0 -22 9 -36 20 -14
12 -63 46 -110 78 -47 31 -90 61 -97 67 -7 5 -40 30 -73 55 -113 83 -285 222
-293 236 -4 8 -13 14 -18 14 -6 0 -27 17 -47 38 -20 21 -47 45 -60 54 -40 27
-168 155 -403 403 -10 12 -19 23 -19 26 0 4 -21 29 -47 56 -27 27 -69 79 -95
114 -45 61 -64 86 -134 168 -28 34 -184 264 -193 286 -2 5 -18 30 -35 55 -33
47 -103 164 -128 215 -55 110 -192 372 -199 381 -5 6 -16 36 -25 65 -9 30 -28
79 -43 109 -28 56 -32 64 -82 210 -17 47 -34 94 -39 105 -6 11 -16 45 -25 75
-8 30 -28 95 -45 144 -16 49 -30 95 -30 102 0 8 -4 22 -9 32 -5 9 -14 40 -19
67 -60 286 -82 414 -98 545 -3 30 -10 75 -15 100 -5 25 -12 109 -16 188 -3 78
-10 145 -15 148 -12 8 -10 439 3 584 30 328 76 674 98 732 5 14 19 81 31 149
11 68 25 128 29 134 4 5 14 33 20 60 12 48 42 147 62 210 6 17 22 66 35 110
14 44 29 89 34 100 9 20 45 112 60 150 4 11 19 45 33 75 14 30 38 86 52 123
14 37 35 84 48 105 13 20 31 58 41 84 9 25 24 52 32 58 7 7 14 20 14 29 0 9 4
21 9 27 5 5 26 41 46 79 21 39 43 77 50 85 7 8 23 35 35 60 12 25 29 49 36 53
8 4 14 15 14 24 0 17 56 106 99 159 14 18 37 51 51 75 14 23 32 50 40 59 8 8
29 36 45 60 33 49 179 234 219 277 14 15 56 62 93 103 37 41 91 99 120 128 29
29 53 57 53 62 0 6 4 10 8 10 5 0 59 48 120 108 111 107 206 192 215 192 3 0
28 21 55 48 55 50 159 134 176 141 6 2 52 34 101 70 110 81 226 161 263 180
15 8 29 17 32 21 3 4 28 20 55 36 28 15 55 32 60 37 13 11 168 92 218 114 20
9 37 20 37 25 0 4 6 8 13 8 7 0 55 22 107 48 141 71 268 122 306 122 31 0 34
-3 39 -37 4 -21 17 -75 31 -119 13 -45 24 -93 24 -107 0 -14 4 -28 9 -32 5 -3
19 -38 31 -78 38 -123 137 -314 240 -465 76 -111 287 -341 313 -342 5 0 22
-12 37 -27 45 -44 62 -58 113 -89 26 -16 64 -41 84 -56 20 -16 40 -28 45 -28
4 0 25 -11 46 -23 58 -37 196 -105 275 -136 29 -11 34 -32 17 -75 -11 -31 -24
-32 -77 -6 -40 19 -110 46 -148 57 -11 3 -27 11 -35 18 -8 7 -22 15 -30 19 -8
4 -33 18 -55 31 -22 13 -60 35 -85 49 -41 22 -93 59 -208 148 -82 63 -292 277
-292 297 0 4 -21 29 -46 56 -25 28 -51 62 -59 76 -8 14 -32 53 -53 85 -22 32
-42 69 -46 82 -4 13 -23 50 -42 83 -19 34 -34 65 -34 70 0 5 -11 32 -25 61
-14 28 -25 57 -25 63 0 5 -9 27 -20 47 -11 21 -23 57 -26 80 -4 24 -13 53 -20
65 -8 12 -14 31 -14 41 0 50 -69 56 -156 13 -32 -16 -88 -43 -124 -60 -57 -27
-113 -56 -160 -82 -8 -5 -49 -27 -90 -50 -41 -23 -97 -55 -125 -71 -56 -32
-239 -150 -270 -173 -11 -9 -43 -33 -71 -55 -29 -22 -57 -40 -62 -40 -6 0 -17
-8 -24 -18 -7 -10 -26 -27 -43 -38 -37 -23 -238 -193 -325 -274 -35 -33 -70
-60 -77 -60 -6 0 -14 -8 -18 -19 -6 -20 -171 -181 -186 -181 -5 0 -9 -6 -9
-13 0 -7 -21 -33 -46 -57 -25 -25 -63 -67 -84 -95 -20 -27 -54 -67 -73 -88
-49 -51 -225 -283 -287 -377 -5 -8 -52 -79 -104 -157 -52 -78 -124 -199 -161
-270 -37 -70 -74 -135 -81 -144 -8 -8 -14 -23 -14 -32 0 -8 -6 -22 -13 -29 -7
-7 -35 -62 -61 -123 -27 -60 -55 -119 -61 -130 -7 -11 -27 -63 -45 -115 -18
-52 -35 -99 -39 -105 -4 -5 -13 -30 -20 -55 -7 -25 -18 -58 -26 -75 -7 -16
-28 -77 -45 -135 -17 -58 -40 -132 -50 -165 -18 -55 -44 -169 -71 -305 -6 -30
-15 -69 -20 -86 -5 -16 -16 -73 -24 -125 -8 -52 -17 -107 -19 -124 -7 -44 -34
-289 -40 -370 -14 -167 -8 -657 10 -845 12 -129 56 -409 85 -545 11 -49 22
-108 25 -130 3 -22 12 -56 19 -75 8 -19 19 -60 25 -90 14 -73 96 -331 126
-398 13 -29 24 -59 24 -66 0 -17 59 -157 71 -170 5 -6 9 -19 9 -29 0 -10 6
-31 14 -45 8 -15 24 -47 34 -72 28 -62 60 -134 92 -206 15 -34 35 -64 44 -67
9 -4 16 -17 16 -30 0 -14 7 -31 16 -38 9 -7 29 -41 46 -76 16 -34 33 -65 39
-68 5 -4 9 -13 9 -22 0 -8 11 -28 25 -45 14 -16 25 -35 25 -42 0 -7 11 -23 25
-36 14 -13 25 -29 25 -35 0 -7 9 -20 20 -30 11 -10 20 -25 20 -33 0 -8 10 -27
23 -42 12 -15 40 -54 62 -86 22 -32 49 -67 60 -78 12 -12 38 -48 60 -81 21
-32 50 -72 64 -87 49 -54 56 -62 66 -79 38 -65 473 -506 606 -613 24 -20 51
-42 59 -49 16 -15 119 -95 159 -125 13 -9 31 -25 40 -35 9 -11 25 -23 36 -28
25 -11 113 -72 140 -97 11 -10 32 -23 48 -30 15 -6 27 -16 27 -21 0 -5 12 -14
28 -20 34 -13 58 -29 97 -61 17 -14 55 -38 85 -53 30 -16 96 -50 145 -77 180
-97 416 -210 457 -219 4 -1 34 -15 65 -30 32 -16 69 -32 83 -35 14 -4 34 -11
45 -16 11 -5 61 -23 110 -39 50 -17 104 -35 120 -40 139 -48 316 -97 400 -111
28 -5 68 -14 90 -20 92 -27 393 -79 500 -87 44 -3 98 -9 120 -15 64 -15 732
-22 860 -9 61 7 157 16 215 21 58 5 139 16 180 24 149 28 196 38 280 57 47 10
103 21 125 25 82 13 373 93 418 116 10 5 66 25 125 44 59 19 125 43 147 53 22
10 59 24 83 31 23 7 47 19 53 27 6 7 16 13 22 13 5 0 40 14 76 31 36 17 82 38
101 46 88 38 207 99 244 123 23 15 52 31 66 35 13 4 36 15 50 24 14 9 32 21
41 26 9 6 49 32 89 58 40 27 80 51 89 55 9 3 18 8 21 11 3 3 43 32 90 64 201
137 382 277 501 387 9 8 44 40 79 70 75 65 140 129 270 270 52 57 106 113 118
124 13 12 30 32 37 46 7 14 32 46 54 70 23 25 57 65 76 90 84 108 115 150 115
156 0 4 7 14 15 23 24 25 95 118 95 125 0 10 64 110 82 128 10 10 18 24 18 32
0 7 7 19 15 26 8 7 21 24 28 39 8 14 28 51 46 81 17 30 45 83 62 118 17 34 35
62 40 62 5 0 9 10 9 23 0 13 4 27 9 33 19 19 71 126 66 134 -3 5 1 15 9 22 18
19 53 91 61 128 4 17 10 30 14 30 5 0 16 21 25 48 10 26 21 54 26 63 4 9 22
58 39 110 17 52 36 103 41 114 19 42 99 295 114 361 8 38 22 101 31 139 9 39
20 90 25 115 4 25 18 99 30 165 12 66 24 134 27 150 2 17 8 39 13 50 5 11 11
54 14 95 3 41 10 120 16 175 6 55 11 246 11 425 0 375 -16 550 -81 925 -5 28
-13 75 -19 105 -5 30 -14 68 -20 83 -6 16 -11 44 -11 63 0 19 -7 51 -15 71 -8
19 -15 45 -15 56 0 12 -6 39 -14 62 -8 22 -26 81 -41 130 -16 50 -38 117 -51
150 -13 33 -24 69 -24 80 0 11 -6 29 -13 40 -7 11 -26 56 -42 100 -28 80 -44
117 -117 273 -21 45 -38 88 -38 95 0 7 -4 17 -9 23 -14 15 -201 363 -201 374
0 6 -7 13 -15 16 -8 4 -15 12 -15 19 0 6 -8 21 -17 33 -10 12 -40 58 -68 102
-27 45 -62 98 -77 118 -67 92 -85 116 -118 157 -19 24 -46 60 -60 81 -14 20
-43 57 -65 83 -23 25 -48 58 -57 72 -42 67 -441 469 -568 572 -41 33 -88 74
-105 90 -30 30 -224 180 -294 226 -119 81 -232 152 -271 172 -25 13 -48 27
-51 32 -7 10 -40 30 -86 52 -18 8 -67 35 -109 60 -41 25 -79 45 -83 45 -5 0
-20 9 -34 20 -14 11 -39 23 -56 26 -17 4 -36 13 -42 20 -6 8 -16 14 -22 14 -9
0 -116 48 -190 86 -16 8 -37 14 -46 14 -10 0 -30 9 -44 20 -17 13 -40 20 -71
20 l-45 0 -21 -72 c-12 -40 -26 -91 -32 -113 -7 -22 -15 -44 -18 -50 -4 -5
-17 -37 -28 -70 -36 -104 -47 -132 -58 -146 -6 -8 -31 -51 -55 -97 -24 -46
-50 -91 -59 -100 -8 -9 -28 -37 -45 -62 -72 -108 -285 -340 -313 -340 -6 0
-30 -20 -54 -45 -24 -24 -48 -45 -53 -45 -6 0 -23 -10 -38 -22 -30 -25 -109
-69 -222 -125 -38 -19 -84 -42 -101 -50 -47 -24 -66 -12 -59 34 10 59 12 61
55 74 22 7 45 18 51 26 6 7 19 13 29 13 10 0 24 7 31 16 8 9 34 25 58 36 25
10 77 42 115 71 101 73 306 257 306 273 0 7 9 19 19 26 11 8 40 43 65 79 25
35 59 83 76 107 16 24 30 47 30 53 0 5 14 28 30 51 17 22 30 46 30 51 0 9 48
114 82 180 8 17 48 170 78 297 12 55 34 100 48 100 4 0 41 -13 82 -29z m172
-360 c132 -59 364 -174 378 -187 9 -7 43 -28 75 -45 33 -18 111 -64 173 -103
62 -39 124 -77 137 -84 14 -7 38 -25 53 -39 15 -14 63 -50 107 -80 124 -84
189 -132 200 -146 6 -7 54 -50 108 -96 54 -45 113 -97 131 -114 18 -18 66 -64
107 -104 99 -96 272 -280 283 -301 4 -9 28 -37 52 -62 45 -45 154 -185 154
-196 0 -3 23 -33 50 -66 28 -33 50 -64 50 -69 0 -5 7 -17 16 -26 14 -16 101
-146 129 -192 5 -9 16 -27 25 -40 31 -50 59 -98 91 -161 18 -36 39 -72 45 -80
21 -28 144 -281 144 -297 0 -4 20 -47 45 -95 25 -48 45 -96 45 -107 0 -10 7
-24 15 -31 8 -7 15 -23 15 -36 0 -13 11 -49 25 -80 14 -31 25 -63 25 -72 0 -8
9 -33 19 -56 11 -23 29 -79 41 -126 12 -47 29 -105 38 -130 9 -25 19 -63 23
-85 4 -22 17 -80 28 -130 99 -421 130 -713 125 -1165 -4 -339 -43 -717 -95
-914 -6 -22 -15 -59 -21 -81 -5 -22 -14 -48 -19 -57 -5 -10 -9 -30 -9 -45 0
-31 -22 -140 -38 -188 -6 -16 -20 -64 -33 -105 -13 -41 -26 -79 -29 -85 -4 -5
-15 -37 -25 -70 -10 -33 -28 -83 -41 -112 -13 -28 -32 -78 -43 -110 -22 -67
-44 -121 -70 -178 -58 -125 -168 -346 -191 -385 -15 -25 -53 -90 -85 -145 -32
-55 -70 -116 -84 -135 -29 -39 -40 -56 -73 -114 -37 -62 -41 -68 -85 -124 -24
-30 -43 -57 -43 -60 0 -6 -50 -65 -93 -112 -8 -8 -20 -26 -27 -40 -7 -14 -19
-29 -25 -35 -7 -5 -53 -57 -103 -115 -130 -152 -387 -402 -562 -545 -198 -163
-292 -231 -494 -360 -17 -10 -37 -25 -44 -32 -7 -7 -19 -13 -27 -13 -7 0 -15
-4 -17 -8 -1 -5 -43 -30 -93 -57 -49 -27 -108 -59 -130 -71 -22 -13 -53 -30
-70 -38 -16 -8 -46 -23 -65 -34 -75 -41 -331 -158 -372 -171 -18 -5 -58 -19
-88 -31 -30 -12 -107 -39 -170 -61 -63 -21 -128 -44 -145 -50 -35 -13 -161
-45 -225 -58 -25 -5 -79 -19 -120 -30 -41 -11 -89 -21 -105 -21 -17 0 -35 -4
-40 -9 -10 -8 -42 -14 -285 -50 -271 -41 -582 -55 -872 -41 -215 10 -256 13
-401 30 -43 5 -81 9 -85 8 -4 -1 -18 1 -32 5 -44 10 -134 27 -170 31 -31 5
-158 33 -250 55 -19 5 -57 14 -85 19 -73 14 -230 59 -310 88 -38 14 -90 32
-115 39 -57 17 -127 41 -165 59 -16 8 -55 24 -85 37 -88 36 -177 77 -305 140
-67 32 -126 59 -132 59 -6 0 -13 4 -15 9 -4 10 -69 49 -158 94 -95 48 -241
141 -248 159 -2 4 -11 8 -19 8 -9 0 -33 15 -53 32 -21 18 -54 44 -74 58 -77
53 -109 77 -169 126 -34 28 -72 57 -84 63 -13 6 -23 18 -23 26 0 8 -6 15 -13
15 -8 0 -38 24 -68 52 -30 29 -123 118 -208 198 -228 215 -437 459 -595 696
-22 33 -65 96 -95 142 -85 125 -108 162 -136 219 -15 29 -30 55 -35 58 -5 3
-22 31 -38 63 -17 31 -47 89 -67 127 -21 39 -43 86 -50 105 -7 19 -29 70 -49
113 -20 42 -36 81 -36 85 0 4 -9 25 -20 47 -11 22 -20 47 -20 56 0 10 -6 24
-13 31 -7 7 -20 36 -29 63 -9 28 -26 75 -38 105 -21 54 -61 183 -84 267 -7 23
-15 45 -19 49 -4 4 -7 17 -7 28 0 12 -9 57 -21 101 -55 217 -95 433 -104 570
-4 55 -11 120 -16 144 -5 24 -14 152 -20 285 -13 332 0 594 47 906 27 179 35
225 50 270 8 25 14 56 14 70 0 14 11 68 25 120 13 52 29 115 36 140 6 25 17
58 25 73 8 16 14 36 14 45 0 20 55 194 76 239 8 17 14 37 14 45 0 7 6 22 14
33 7 11 17 36 21 55 4 19 14 44 21 55 8 11 14 26 14 34 0 7 9 32 19 55 11 23
22 48 25 56 3 8 10 22 15 30 17 29 51 107 51 117 0 6 7 16 15 23 8 7 15 21 15
30 0 10 3 20 8 22 4 2 22 32 41 68 52 101 64 124 73 140 4 8 12 24 17 35 5 11
21 37 35 58 14 21 26 41 26 44 0 3 16 28 35 54 19 27 35 52 35 55 0 4 15 27
34 53 19 25 57 80 85 121 55 81 66 96 156 210 95 120 204 247 278 321 37 37
67 70 67 73 0 7 143 146 150 146 4 0 21 20 40 45 19 25 37 45 42 45 9 0 101
72 158 123 20 18 50 43 69 57 18 14 50 39 71 55 21 17 72 55 114 85 42 30 88
65 102 78 14 12 30 22 36 22 5 0 23 10 38 23 16 12 50 35 77 51 26 17 52 36
56 43 4 7 16 13 26 13 10 0 24 6 30 14 7 8 81 49 164 92 84 43 177 90 207 105
30 16 62 29 71 29 24 0 45 -28 74 -105 15 -38 31 -77 36 -85 10 -16 19 -37 52
-115 12 -27 34 -68 49 -89 16 -21 28 -47 28 -57 0 -10 4 -20 9 -24 11 -6 64
-83 73 -105 7 -16 132 -173 188 -235 171 -191 377 -345 619 -465 165 -82 181
-90 276 -128 40 -16 51 -26 53 -47 7 -56 -40 -68 -120 -31 -18 8 -64 27 -103
40 -97 35 -271 129 -405 219 -125 83 -131 89 -235 182 -123 111 -181 170 -210
215 -13 19 -37 48 -54 64 -17 17 -31 33 -31 37 0 4 -35 58 -77 121 -78 114
-154 253 -199 362 -36 89 -48 99 -109 91 -27 -4 -59 -15 -70 -25 -11 -10 -49
-32 -85 -50 -59 -29 -133 -73 -202 -121 -15 -11 -30 -19 -33 -19 -3 0 -24 -13
-47 -30 -22 -16 -47 -30 -54 -30 -7 0 -14 -4 -16 -9 -4 -10 -166 -124 -190
-134 -10 -3 -18 -10 -18 -15 0 -5 -28 -27 -62 -49 -35 -23 -74 -51 -87 -63
-13 -13 -44 -39 -70 -58 -25 -19 -71 -60 -101 -91 -31 -31 -95 -92 -144 -136
-120 -109 -196 -185 -196 -198 0 -5 -18 -25 -40 -44 -22 -19 -40 -38 -40 -43
0 -4 -17 -25 -37 -47 -21 -21 -45 -48 -53 -58 -49 -65 -97 -121 -108 -128 -6
-4 -12 -14 -12 -21 0 -8 -10 -20 -22 -28 -11 -8 -22 -23 -22 -34 -1 -10 -18
-36 -38 -55 -20 -20 -43 -51 -52 -68 -9 -17 -21 -31 -26 -31 -6 0 -10 -4 -10
-9 0 -6 -24 -48 -52 -95 -29 -47 -66 -108 -83 -137 -16 -28 -38 -59 -47 -67
-10 -9 -18 -23 -18 -30 0 -8 -8 -26 -19 -40 -10 -15 -35 -61 -55 -102 -21 -41
-44 -82 -52 -91 -8 -8 -14 -19 -14 -24 0 -8 -21 -57 -60 -140 -11 -22 -31 -71
-45 -110 -15 -38 -35 -88 -44 -110 -10 -22 -31 -71 -45 -110 -15 -38 -31 -79
-36 -90 -5 -11 -14 -40 -20 -65 -6 -25 -18 -60 -26 -78 -9 -18 -19 -54 -24
-80 -5 -26 -21 -90 -36 -142 -27 -96 -85 -366 -98 -450 -7 -54 -11 -84 -32
-260 -20 -176 -30 -695 -15 -860 19 -220 41 -413 57 -495 9 -44 18 -100 21
-125 3 -25 16 -78 29 -118 13 -40 24 -80 24 -88 0 -19 71 -271 94 -334 10 -25
23 -65 30 -90 20 -66 59 -174 82 -225 7 -16 27 -61 44 -98 16 -38 30 -75 30
-82 0 -8 4 -16 9 -19 5 -3 12 -17 15 -31 4 -14 26 -58 49 -98 24 -39 63 -112
87 -162 25 -49 64 -119 87 -154 24 -35 43 -69 43 -76 0 -6 9 -20 20 -30 11
-10 20 -26 20 -36 0 -10 9 -23 20 -29 11 -6 20 -17 20 -24 0 -8 25 -46 55 -84
30 -39 55 -75 55 -81 0 -6 4 -11 8 -11 5 0 24 -24 42 -53 49 -76 128 -180 180
-237 14 -15 52 -57 85 -94 51 -58 92 -104 132 -147 4 -5 24 -24 43 -42 19 -18
51 -51 70 -73 30 -33 96 -94 208 -192 56 -48 189 -154 227 -180 21 -15 47 -35
57 -45 10 -9 25 -17 33 -17 8 0 15 -4 15 -9 0 -5 15 -18 33 -30 51 -33 251
-169 263 -180 6 -5 30 -19 53 -31 23 -11 66 -37 96 -56 30 -18 59 -34 64 -34
12 0 102 -47 116 -61 5 -5 17 -9 27 -9 10 0 21 -6 24 -14 3 -8 18 -18 34 -21
15 -3 49 -19 74 -36 26 -16 49 -29 53 -29 3 0 53 -20 112 -44 221 -92 320
-128 471 -172 238 -69 319 -91 395 -103 39 -7 84 -17 102 -22 63 -19 222 -44
383 -59 63 -6 159 -15 212 -21 118 -12 608 -10 733 3 174 18 420 49 470 59 28
6 68 14 90 19 22 4 78 16 125 26 47 9 89 21 95 26 5 4 19 8 30 8 12 0 64 13
115 30 51 16 100 30 108 30 30 0 331 108 447 160 11 5 44 19 73 30 30 11 61
27 69 35 8 8 21 15 30 15 8 0 27 7 41 15 15 8 38 19 52 25 14 6 52 25 85 43
33 18 93 51 133 72 40 22 85 47 101 56 16 9 42 24 58 35 42 28 65 42 91 54 13
5 38 21 56 35 18 14 38 25 44 25 7 0 12 4 12 8 0 4 15 16 33 26 17 11 51 34
74 53 23 18 45 33 49 33 3 0 17 10 29 23 13 12 34 30 47 39 64 47 144 114 156
130 7 10 18 18 24 18 26 0 444 406 538 523 30 38 72 87 93 109 20 22 37 44 37
48 0 5 23 35 51 67 28 32 75 94 105 138 29 44 75 112 102 150 47 68 89 137
120 200 8 17 22 38 30 48 20 23 29 39 102 187 34 69 68 132 75 140 7 8 24 42
38 75 33 76 107 254 117 280 4 11 13 34 20 50 7 17 16 44 20 60 5 17 18 55 29
85 19 50 108 365 132 465 36 147 80 422 102 630 16 156 15 742 -2 895 -6 63
-16 160 -21 215 -11 121 -27 216 -46 270 -8 23 -14 52 -14 65 0 14 -13 77 -30
140 -16 63 -35 135 -41 160 -6 25 -15 54 -19 65 -5 11 -19 60 -30 109 -11 50
-29 108 -39 130 -10 23 -24 59 -31 81 -7 22 -26 67 -41 101 -16 34 -29 66 -29
71 0 6 -18 50 -40 98 -22 48 -40 95 -40 104 0 10 -9 26 -20 36 -11 10 -20 25
-20 34 0 9 -14 41 -31 71 -17 30 -53 98 -81 150 -27 52 -53 97 -57 100 -3 3
-30 46 -58 95 -85 148 -236 365 -339 486 -21 26 -50 61 -64 79 -72 95 -389
430 -406 430 -3 0 -35 30 -71 66 -37 36 -98 92 -137 124 -39 32 -86 73 -105
90 -19 17 -50 42 -70 55 -42 28 -95 66 -166 118 -85 62 -152 105 -225 143 -38
20 -77 45 -86 55 -10 11 -21 19 -25 19 -4 0 -27 13 -51 29 -24 16 -126 69
-228 119 -230 113 -243 113 -290 -7 -11 -30 -27 -63 -35 -75 -8 -11 -15 -31
-15 -43 0 -13 -4 -23 -9 -23 -5 0 -16 -17 -25 -37 -9 -21 -22 -47 -29 -58 -86
-139 -158 -237 -224 -310 -95 -104 -183 -192 -238 -239 -123 -104 -380 -261
-484 -296 -36 -12 -74 -28 -85 -36 -26 -18 -70 -18 -85 0 -6 7 -10 25 -9 40 2
27 26 42 163 101 98 43 143 66 155 80 7 8 16 15 21 15 5 0 34 17 65 38 31 20
64 42 72 47 38 24 219 170 242 195 99 106 202 238 265 339 86 135 144 237 145
250 0 7 16 47 35 88 19 41 35 84 35 96 0 32 29 57 66 57 18 0 61 -13 96 -29z
m131 -360 c94 -49 280 -157 347 -201 18 -12 98 -61 122 -75 44 -26 136 -93
161 -117 16 -16 34 -28 40 -28 7 0 47 -30 89 -67 42 -38 93 -79 114 -93 42
-29 93 -73 203 -180 43 -41 99 -94 124 -118 26 -23 47 -45 47 -48 0 -4 19 -25
42 -47 23 -23 84 -91 136 -151 52 -61 100 -116 108 -122 8 -6 14 -15 14 -21 0
-5 14 -22 30 -38 17 -16 30 -36 30 -45 0 -9 8 -24 18 -34 11 -9 36 -42 58 -74
21 -31 42 -58 46 -60 4 -2 22 -29 39 -60 18 -31 43 -70 56 -85 13 -16 23 -35
23 -42 0 -8 9 -19 20 -25 11 -6 20 -19 20 -29 0 -10 7 -24 15 -31 9 -7 33 -47
54 -89 21 -42 72 -142 112 -222 89 -176 109 -221 109 -240 0 -8 4 -19 9 -24 7
-8 65 -142 90 -210 24 -63 71 -220 126 -415 15 -52 33 -116 41 -142 8 -26 14
-62 14 -82 0 -19 9 -79 19 -133 11 -54 24 -136 31 -183 6 -47 15 -116 20 -155
5 -38 12 -124 15 -190 3 -66 8 -139 11 -163 7 -59 -15 -601 -26 -632 -5 -14
-12 -63 -15 -110 -3 -47 -12 -114 -20 -150 -8 -36 -15 -82 -15 -103 0 -20 -4
-45 -9 -55 -5 -9 -17 -55 -26 -102 -10 -47 -21 -96 -25 -110 -7 -23 -27 -100
-52 -195 -5 -22 -14 -48 -19 -57 -4 -9 -17 -51 -28 -92 -11 -42 -27 -90 -35
-108 -8 -18 -25 -60 -37 -93 -12 -33 -25 -64 -30 -70 -5 -5 -9 -18 -9 -30 0
-11 -7 -29 -15 -39 -8 -11 -15 -27 -15 -37 0 -9 -8 -27 -19 -40 -10 -13 -22
-35 -26 -49 -8 -29 -99 -216 -113 -233 -5 -7 -13 -22 -16 -34 -7 -21 -29 -63
-83 -151 -12 -21 -28 -48 -35 -62 -7 -14 -23 -38 -35 -53 -13 -16 -23 -34 -23
-42 0 -7 -6 -18 -14 -24 -8 -7 -23 -29 -34 -49 -11 -21 -42 -69 -70 -107 -119
-161 -148 -201 -169 -225 -12 -14 -40 -47 -63 -75 -85 -104 -139 -163 -275
-300 -209 -208 -350 -332 -518 -455 -50 -37 -164 -123 -183 -139 -7 -6 -27
-17 -45 -25 -19 -9 -52 -30 -74 -46 -22 -17 -53 -37 -70 -45 -16 -8 -50 -28
-75 -45 -25 -16 -71 -43 -102 -59 -31 -17 -59 -35 -63 -41 -3 -5 -17 -10 -30
-10 -13 0 -26 -4 -30 -9 -5 -9 -166 -91 -178 -91 -3 0 -48 -20 -100 -45 -53
-25 -100 -45 -105 -45 -5 0 -39 -13 -75 -30 -37 -17 -73 -30 -81 -30 -7 0 -19
-7 -26 -15 -7 -9 -20 -13 -29 -10 -9 2 -29 -2 -46 -11 -16 -9 -61 -24 -100
-34 -38 -10 -83 -23 -100 -28 -105 -35 -145 -47 -185 -53 -25 -4 -110 -21
-190 -37 -428 -90 -903 -117 -1335 -77 -268 25 -324 31 -395 44 -36 6 -74 13
-85 15 -24 4 -68 14 -115 26 -19 5 -66 17 -105 26 -38 9 -97 24 -130 34 -33
10 -96 28 -140 40 -44 13 -93 28 -110 36 -16 7 -64 22 -105 35 -41 12 -102 34
-135 49 -110 50 -136 60 -148 60 -7 0 -23 9 -37 20 -14 11 -32 20 -41 20 -21
0 -176 76 -216 106 -17 13 -37 24 -43 24 -7 0 -35 13 -63 29 -125 69 -253 145
-270 159 -17 15 -23 19 -86 57 -19 11 -60 41 -92 68 -32 26 -63 47 -68 47 -5
0 -16 8 -23 18 -7 9 -38 34 -68 55 -66 44 -136 103 -248 206 -46 42 -91 80
-99 84 -18 11 -54 49 -309 326 -89 98 -214 254 -214 268 0 3 -7 13 -15 22 -9
9 -40 50 -70 91 -30 41 -66 89 -80 106 -14 18 -25 38 -25 47 0 8 -7 20 -16 28
-8 7 -24 29 -35 48 -11 20 -31 54 -44 76 -54 91 -123 218 -163 300 -18 39 -38
77 -43 85 -10 17 -16 29 -72 155 -61 138 -62 142 -117 305 -16 47 -36 102 -44
122 -9 21 -16 50 -16 66 0 15 -4 32 -9 37 -19 19 -80 255 -81 307 0 15 -9 51
-20 80 -11 29 -20 67 -20 85 0 17 -6 60 -14 95 -7 35 -19 117 -25 183 -7 66
-17 151 -23 189 -14 94 -15 657 0 776 6 52 14 118 17 145 12 111 56 384 79
485 28 128 66 270 80 303 7 19 17 54 21 78 4 24 14 53 21 64 8 11 14 29 14 41
0 12 6 35 14 51 8 15 24 55 36 88 13 33 31 78 40 100 10 22 44 103 76 180 32
77 65 149 75 160 9 11 19 32 23 47 3 15 12 33 19 40 6 8 29 48 50 91 34 67 69
125 164 268 12 19 23 40 23 45 0 6 9 19 20 29 11 10 20 24 20 30 0 7 7 15 15
19 8 3 15 11 15 18 0 6 18 33 40 59 22 26 40 52 40 57 0 4 11 19 25 32 14 13
25 28 25 34 0 6 24 39 53 73 28 34 70 83 92 110 22 26 51 60 65 74 14 14 61
66 105 115 44 49 86 93 94 98 8 5 44 39 81 75 88 88 229 215 246 221 7 3 32
22 56 43 24 20 79 64 123 97 44 32 94 70 111 84 18 14 35 26 39 26 4 0 24 14
45 30 21 17 43 30 48 30 6 0 31 15 55 34 25 19 59 42 76 50 17 9 47 28 68 42
53 36 162 86 181 82 18 -3 56 -56 93 -127 13 -25 29 -53 35 -61 7 -8 26 -42
43 -75 18 -33 48 -80 67 -105 19 -25 41 -54 49 -65 105 -141 281 -322 425
-437 63 -50 165 -118 300 -200 114 -69 325 -168 360 -168 8 0 29 -7 45 -16 17
-9 48 -19 70 -23 39 -6 40 -7 43 -52 4 -67 -11 -75 -84 -45 -32 13 -104 40
-159 61 -55 20 -123 47 -152 61 -28 13 -55 24 -59 24 -4 0 -21 11 -38 24 -17
13 -56 36 -86 51 -29 15 -65 35 -80 45 -14 10 -63 42 -110 73 -47 30 -99 68
-115 84 -17 16 -59 53 -95 83 -36 29 -80 70 -99 89 -18 20 -60 64 -92 97 -32
34 -59 66 -59 73 0 6 -4 11 -9 11 -5 0 -23 19 -40 43 -109 146 -141 192 -141
203 0 6 -7 14 -15 18 -8 3 -20 17 -25 32 -6 14 -26 50 -45 79 -19 28 -35 57
-35 63 0 7 -11 14 -24 18 -18 4 -43 -5 -91 -33 -36 -21 -78 -45 -93 -53 -88
-50 -144 -86 -199 -125 -35 -25 -93 -66 -130 -91 -38 -25 -72 -53 -76 -60 -4
-8 -13 -14 -20 -14 -7 0 -33 -20 -58 -43 -25 -23 -68 -60 -94 -82 -27 -22
-116 -106 -199 -187 -83 -81 -154 -148 -157 -148 -4 0 -25 -24 -47 -52 -22
-29 -64 -79 -93 -111 -30 -31 -63 -69 -74 -83 -11 -15 -27 -34 -35 -43 -8 -9
-28 -36 -45 -60 -16 -24 -35 -45 -42 -48 -7 -3 -13 -12 -13 -21 0 -9 -9 -25
-20 -37 -42 -42 -93 -111 -102 -137 -6 -16 -14 -28 -19 -28 -5 0 -15 -15 -22
-32 -8 -18 -21 -39 -30 -47 -10 -7 -17 -19 -17 -27 0 -7 -11 -25 -25 -40 -14
-15 -25 -32 -25 -38 0 -6 -11 -28 -25 -48 -14 -20 -25 -44 -25 -53 0 -8 -6
-18 -14 -21 -7 -3 -28 -35 -45 -72 -29 -61 -37 -77 -63 -122 -4 -8 -13 -26
-19 -40 -6 -14 -24 -53 -40 -86 -16 -34 -29 -67 -29 -72 0 -6 -9 -26 -19 -44
-11 -18 -31 -68 -46 -111 -14 -43 -41 -116 -60 -162 -19 -47 -43 -120 -55
-162 -11 -43 -31 -109 -44 -148 -13 -38 -29 -101 -36 -140 -7 -38 -21 -104
-31 -147 -10 -42 -19 -92 -19 -112 0 -19 -4 -38 -10 -41 -5 -3 -10 -23 -10
-43 0 -20 -6 -75 -14 -122 -27 -162 -37 -326 -35 -625 1 -286 4 -344 30 -550
7 -49 14 -106 16 -125 2 -19 10 -66 18 -105 8 -38 16 -81 18 -95 27 -161 148
-583 183 -637 8 -12 14 -30 14 -40 0 -10 14 -54 31 -98 17 -44 34 -93 39 -108
5 -16 13 -34 18 -40 5 -7 19 -38 31 -69 13 -32 29 -62 37 -69 8 -6 14 -20 14
-31 0 -11 9 -31 20 -45 11 -14 20 -34 20 -44 0 -10 5 -21 10 -24 6 -4 26 -39
45 -78 19 -40 53 -101 75 -137 22 -36 43 -72 46 -80 15 -32 89 -140 96 -140 4
0 8 -6 8 -13 0 -7 11 -23 25 -35 14 -12 25 -26 25 -31 0 -13 29 -56 105 -154
33 -43 65 -86 70 -96 6 -9 27 -35 49 -56 21 -22 50 -56 64 -75 14 -19 47 -57
73 -85 147 -153 303 -308 369 -366 162 -143 193 -169 202 -169 4 0 16 -7 26
-15 48 -43 133 -105 142 -105 5 0 14 -9 20 -20 6 -11 15 -20 21 -20 11 0 153
-89 179 -112 9 -8 45 -29 80 -47 36 -18 72 -39 80 -46 8 -7 31 -20 50 -30 383
-192 447 -223 546 -260 38 -14 78 -29 89 -34 19 -7 107 -36 300 -95 44 -14 98
-30 120 -35 22 -5 90 -22 150 -37 61 -14 157 -34 215 -44 58 -10 116 -21 130
-24 36 -8 187 -27 240 -31 421 -28 537 -28 835 -4 147 12 362 44 470 68 22 5
67 15 100 21 187 38 356 83 470 125 33 13 80 28 105 36 25 7 49 16 55 21 5 4
16 8 25 8 8 0 33 9 55 20 22 10 70 31 107 45 36 14 109 45 161 70 53 25 100
45 105 45 5 0 20 9 34 19 13 11 61 39 107 63 127 66 132 69 152 89 10 10 27
19 38 19 10 0 29 8 42 19 13 10 67 47 119 81 52 35 98 68 101 73 4 5 16 14 27
20 21 13 151 104 189 134 56 44 71 57 126 106 181 162 427 401 427 415 0 4 25
34 56 67 108 118 119 131 154 178 19 26 61 82 94 125 32 42 62 86 67 97 5 11
29 47 54 80 25 33 51 74 59 91 8 17 22 36 30 44 9 7 16 21 16 31 0 10 8 26 19
36 10 10 50 79 89 153 38 74 77 149 85 165 32 59 107 226 107 235 0 6 4 18 10
28 17 29 70 172 70 187 0 9 4 23 9 33 37 72 101 271 125 387 39 188 49 235 62
292 8 34 14 79 14 101 0 21 4 42 9 47 5 6 13 51 16 100 4 50 10 99 15 110 5
11 13 136 20 278 12 272 5 473 -25 707 -8 63 -16 133 -19 155 -12 120 -88 496
-106 527 -5 10 -10 27 -10 38 0 10 -12 54 -26 97 -14 43 -30 92 -34 108 -4 17
-22 68 -40 115 -17 47 -36 101 -42 120 -5 19 -18 53 -28 75 -9 22 -20 47 -23
55 -4 8 -11 22 -16 30 -23 41 -41 79 -41 88 0 15 -17 52 -40 87 -11 17 -23 37
-26 45 -15 37 -86 179 -110 220 -14 25 -45 77 -67 115 -22 39 -43 72 -47 75
-3 3 -24 34 -45 70 -33 56 -54 86 -94 136 -5 6 -41 55 -80 110 -87 121 -141
186 -286 343 -61 65 -171 176 -295 295 -19 18 -64 56 -100 84 -36 28 -74 59
-85 70 -34 33 -168 137 -210 162 -22 13 -44 30 -48 37 -4 7 -14 13 -21 13 -8
0 -16 7 -20 15 -3 8 -12 15 -19 15 -8 0 -20 6 -26 14 -14 17 -299 187 -441
264 -85 46 -94 39 -198 -148 -13 -25 -33 -54 -43 -66 -11 -11 -19 -24 -19 -28
0 -5 -11 -22 -25 -40 -14 -17 -33 -42 -42 -54 -59 -78 -306 -332 -323 -332 -5
0 -33 -23 -61 -50 -29 -28 -79 -67 -113 -87 -34 -20 -77 -49 -97 -65 -20 -15
-43 -28 -51 -28 -8 0 -23 -9 -33 -20 -10 -11 -27 -22 -39 -26 -11 -3 -62 -26
-112 -50 -51 -24 -98 -44 -106 -44 -8 0 -23 -7 -34 -15 -10 -8 -25 -15 -32
-15 -7 0 -33 -10 -58 -22 -64 -30 -96 -7 -80 57 4 17 21 28 68 45 35 13 127
54 205 92 79 37 146 68 149 68 4 0 41 24 83 54 42 29 86 56 99 60 12 4 22 11
22 15 0 5 18 20 39 34 22 14 59 45 83 69 24 24 78 75 119 114 80 77 134 137
203 229 25 33 54 71 64 85 11 14 34 51 52 82 17 32 36 61 41 64 5 3 16 22 24
42 27 64 85 142 105 142 11 0 70 -27 133 -59z m177 -412 c52 -33 106 -65 120
-72 14 -6 29 -17 33 -24 4 -7 13 -13 19 -13 6 0 27 -14 47 -30 59 -50 62 -52
115 -88 28 -19 65 -47 82 -61 17 -14 45 -37 62 -51 18 -14 42 -33 54 -43 144
-115 442 -416 561 -567 20 -25 47 -56 60 -70 13 -14 33 -40 43 -57 10 -18 21
-33 25 -33 4 0 16 -15 28 -32 11 -18 45 -69 76 -113 79 -115 76 -110 146 -228
123 -209 258 -476 288 -569 7 -21 17 -40 22 -43 5 -4 9 -14 9 -23 0 -15 23
-80 56 -157 7 -16 16 -43 20 -60 4 -16 9 -34 13 -40 15 -26 44 -119 66 -210
12 -55 34 -147 48 -205 13 -58 28 -123 31 -145 4 -22 11 -53 16 -70 11 -39 28
-143 35 -220 5 -59 11 -106 20 -175 17 -117 10 -662 -9 -805 -3 -22 -10 -76
-16 -120 -5 -44 -14 -102 -19 -130 -5 -27 -15 -84 -21 -125 -7 -41 -23 -118
-36 -170 -13 -52 -24 -104 -24 -116 0 -13 -4 -26 -10 -29 -5 -3 -10 -16 -10
-28 0 -12 -7 -42 -15 -67 -8 -25 -23 -72 -34 -105 -11 -33 -38 -112 -61 -175
-23 -63 -46 -129 -51 -147 -6 -18 -14 -35 -19 -38 -6 -4 -10 -14 -10 -23 0
-15 -104 -234 -158 -332 -11 -19 -32 -62 -47 -95 -16 -33 -34 -64 -40 -70 -7
-5 -28 -39 -46 -75 -19 -36 -47 -84 -64 -107 -16 -23 -43 -63 -60 -90 -16 -26
-35 -54 -43 -63 -7 -8 -42 -55 -78 -105 -36 -49 -74 -96 -85 -104 -10 -7 -19
-19 -19 -25 0 -6 -27 -40 -60 -76 -33 -36 -72 -80 -88 -98 -57 -69 -231 -243
-338 -338 -130 -116 -311 -266 -333 -277 -9 -4 -36 -22 -61 -41 -25 -19 -76
-54 -115 -77 -38 -23 -81 -49 -94 -58 -14 -9 -47 -29 -75 -45 -28 -15 -53 -31
-56 -35 -10 -12 -298 -162 -335 -174 -11 -4 -27 -11 -35 -16 -27 -17 -143 -67
-235 -101 -49 -18 -94 -37 -100 -40 -5 -4 -64 -24 -130 -44 -66 -21 -131 -41
-145 -46 -14 -5 -43 -12 -65 -16 -22 -4 -48 -11 -58 -16 -19 -10 -115 -33
-202 -49 -27 -5 -72 -13 -100 -19 -285 -57 -632 -86 -895 -76 -206 8 -391 21
-475 35 -330 53 -412 70 -735 156 -14 4 -34 11 -45 15 -11 5 -49 19 -85 31
-36 11 -69 24 -75 28 -5 4 -28 13 -50 20 -109 35 -354 139 -405 171 -8 6 -60
33 -115 61 -55 28 -109 56 -120 62 -162 96 -215 128 -300 187 -54 38 -133 96
-175 130 -77 62 -150 117 -179 135 -58 35 -551 531 -551 554 0 4 -12 21 -26
37 -56 64 -122 151 -138 182 -9 18 -24 36 -32 39 -7 3 -14 11 -14 19 0 8 -4
14 -8 14 -9 0 -104 141 -129 190 -4 8 -36 62 -72 120 -35 58 -79 137 -98 175
-18 39 -38 77 -43 85 -6 8 -18 31 -26 50 -9 19 -31 66 -50 103 -19 37 -34 76
-34 85 0 10 -6 26 -14 37 -7 11 -19 38 -26 60 -7 22 -21 60 -32 85 -11 25 -25
59 -32 75 -8 17 -17 45 -20 62 -4 18 -12 35 -17 38 -5 4 -9 17 -9 30 0 13 -4
27 -10 30 -5 3 -10 18 -10 33 -1 15 -8 45 -16 67 -8 22 -19 63 -24 90 -4 28
-16 77 -25 110 -10 33 -21 83 -25 110 -5 28 -16 77 -25 110 -9 33 -20 95 -25
137 -4 42 -11 81 -14 86 -3 5 -8 59 -11 118 -3 60 -10 154 -17 209 -12 109 -5
473 12 655 12 118 38 314 47 345 3 11 9 43 13 70 14 80 52 248 76 334 28 101
75 255 89 291 8 19 30 78 50 130 20 52 42 109 49 125 8 17 23 59 36 95 12 36
27 72 34 80 13 15 50 85 80 150 22 48 74 141 90 160 7 8 19 31 26 50 7 19 18
40 25 45 7 6 21 28 33 51 11 22 28 46 36 53 9 8 16 20 16 28 0 8 13 28 30 46
16 18 30 37 30 44 0 7 11 24 25 39 14 15 25 33 25 40 0 8 4 14 10 14 5 0 22
19 37 42 15 23 39 53 53 68 14 15 34 39 45 54 11 15 27 35 36 45 9 10 18 24
20 30 5 15 148 168 287 308 110 111 283 264 352 313 19 14 71 53 115 89 154
123 371 256 401 244 14 -5 65 -68 83 -100 6 -13 46 -68 89 -124 42 -55 84
-110 92 -122 18 -27 215 -224 291 -292 68 -60 172 -136 211 -152 15 -7 28 -16
28 -22 0 -5 10 -13 22 -17 21 -6 77 -42 88 -55 7 -8 285 -149 336 -170 51 -21
123 -46 204 -71 36 -12 82 -27 103 -36 36 -14 37 -17 37 -64 0 -44 -2 -48 -24
-48 -14 0 -28 5 -31 10 -3 6 -13 10 -21 10 -20 0 -265 86 -334 117 -89 40
-232 112 -275 139 -22 13 -54 31 -71 38 -17 8 -36 22 -44 30 -7 9 -17 16 -22
16 -14 0 -169 110 -207 147 -18 18 -37 33 -43 33 -5 0 -30 21 -55 46 -25 26
-64 63 -88 84 -24 21 -64 62 -90 91 -99 116 -131 152 -158 181 -15 16 -27 33
-27 38 0 18 -94 131 -120 145 -27 14 -55 3 -165 -68 -74 -47 -378 -286 -427
-335 -9 -9 -34 -33 -57 -52 -71 -62 -264 -254 -316 -315 -27 -33 -67 -77 -88
-100 -20 -22 -49 -58 -65 -80 -15 -22 -33 -44 -39 -48 -7 -4 -13 -13 -13 -18
0 -6 -17 -31 -39 -57 -21 -26 -63 -85 -94 -132 -31 -47 -69 -104 -86 -128 -17
-23 -31 -47 -31 -53 0 -6 -14 -30 -30 -54 -36 -53 -113 -194 -175 -325 -25
-52 -52 -107 -60 -122 -8 -14 -15 -33 -15 -42 0 -9 -13 -42 -29 -73 -48 -95
-129 -330 -148 -425 -3 -16 -9 -28 -14 -28 -5 0 -9 -11 -9 -24 0 -13 -7 -43
-15 -66 -8 -23 -15 -57 -15 -74 0 -18 -4 -36 -9 -42 -11 -11 -65 -296 -81
-424 -17 -138 -33 -452 -31 -625 2 -144 23 -433 41 -560 24 -163 41 -254 54
-295 8 -25 17 -64 20 -87 4 -24 12 -62 20 -85 7 -24 24 -77 37 -118 55 -183
113 -351 144 -420 18 -41 36 -82 39 -90 3 -8 10 -22 15 -30 5 -8 25 -51 45
-95 20 -44 46 -98 57 -120 12 -22 39 -75 61 -117 22 -43 44 -78 49 -78 5 0 9
-11 9 -24 0 -13 6 -26 14 -29 7 -3 28 -32 46 -64 31 -54 72 -121 126 -203 13
-20 42 -54 64 -77 22 -23 40 -45 40 -48 0 -10 105 -147 156 -204 133 -148 162
-178 251 -264 53 -51 108 -104 122 -118 56 -58 286 -243 441 -354 41 -30 140
-95 144 -95 2 0 61 -35 132 -78 71 -42 161 -92 199 -111 39 -18 87 -42 107
-52 20 -10 42 -19 49 -19 7 0 20 -6 28 -13 9 -8 79 -40 156 -72 77 -32 154
-64 172 -71 17 -8 39 -14 50 -14 10 0 26 -7 36 -15 11 -7 37 -17 60 -20 22 -4
65 -16 96 -26 30 -11 65 -19 78 -19 12 0 23 -4 23 -8 0 -4 26 -13 58 -20 31
-7 75 -17 97 -22 340 -78 514 -100 871 -107 284 -6 455 2 689 33 149 19 356
54 380 64 11 5 72 22 135 40 241 66 377 110 465 150 33 15 83 35 110 45 28 10
72 28 98 41 26 12 61 26 77 29 17 4 30 10 30 14 0 5 32 23 70 40 39 18 70 37
70 42 0 5 6 9 14 9 19 0 136 61 207 108 14 9 46 31 73 47 179 113 213 136 231
154 12 12 25 21 31 21 5 0 17 8 26 18 9 9 38 33 64 52 158 117 494 439 609
583 17 20 54 63 83 94 28 32 52 60 52 64 0 4 34 51 75 104 41 52 75 99 75 102
0 7 51 85 61 93 4 3 16 23 28 45 40 73 56 98 74 117 9 10 17 23 17 30 0 6 6
19 14 27 8 9 49 85 91 169 43 84 82 155 86 158 5 3 9 15 9 27 0 12 13 49 29
82 37 75 104 243 127 315 9 30 21 64 25 75 12 32 38 117 49 165 14 59 38 154
51 205 17 65 50 254 59 340 5 44 14 109 20 145 6 36 13 218 16 405 6 309 4
355 -15 510 -35 277 -72 488 -92 527 -5 10 -9 28 -9 41 0 28 -39 158 -51 172
-5 5 -9 21 -9 36 0 39 -74 261 -124 374 -8 17 -24 55 -35 85 -37 94 -113 255
-152 325 -63 111 -126 219 -139 240 -8 13 -37 60 -63 104 -26 44 -51 81 -55
83 -4 2 -25 30 -47 63 -21 33 -58 83 -82 111 -24 28 -43 55 -43 59 0 17 -241
285 -370 411 -114 112 -159 152 -248 225 -48 39 -91 78 -95 85 -4 8 -12 14
-18 14 -5 0 -42 26 -82 58 -41 32 -91 69 -113 82 -21 13 -57 37 -79 55 -22 17
-78 52 -125 79 -46 27 -90 55 -98 62 -7 8 -32 14 -55 14 -46 0 -72 -21 -118
-98 -67 -110 -345 -401 -427 -446 -10 -5 -44 -33 -77 -61 -66 -56 -146 -110
-251 -168 -69 -37 -88 -48 -121 -67 -19 -11 -66 -33 -143 -67 -25 -11 -79 -32
-120 -47 -41 -15 -82 -31 -91 -36 -9 -4 -37 -11 -62 -15 -44 -7 -46 -6 -53 19
-9 39 8 80 37 84 36 5 283 97 329 123 8 4 44 23 80 40 59 30 162 92 232 140
15 11 31 19 36 19 5 0 17 9 27 20 10 11 24 20 30 20 7 0 32 19 56 43 24 23 73
67 109 97 78 66 204 196 239 248 14 20 31 42 37 47 19 18 79 99 117 157 20 31
49 66 63 77 l26 20 77 -40 c42 -22 119 -67 171 -100z m-132 -231 c31 -18 73
-44 92 -59 19 -16 46 -34 60 -41 92 -48 372 -279 560 -463 165 -161 365 -387
430 -486 8 -12 22 -30 31 -40 10 -9 23 -28 30 -42 8 -14 53 -83 100 -154 48
-70 96 -146 108 -168 12 -22 25 -47 29 -55 57 -102 162 -312 162 -323 0 -7 12
-34 26 -61 40 -75 168 -430 185 -511 4 -22 23 -101 42 -175 42 -162 72 -325
83 -455 33 -376 45 -744 24 -784 -5 -9 -14 -70 -20 -136 -24 -235 -29 -271
-60 -425 -31 -154 -53 -248 -65 -275 -8 -16 -28 -77 -45 -135 -17 -58 -36
-114 -42 -125 -7 -11 -15 -36 -19 -55 -12 -53 -42 -132 -62 -160 -9 -13 -17
-30 -17 -37 0 -7 -9 -27 -20 -45 -11 -18 -20 -41 -20 -50 0 -18 -63 -144 -81
-163 -5 -5 -9 -19 -9 -32 0 -13 -7 -26 -15 -29 -8 -4 -15 -11 -15 -18 0 -6
-20 -40 -45 -76 -25 -36 -45 -75 -45 -87 0 -12 -4 -24 -10 -28 -13 -8 -121
-166 -131 -193 -5 -12 -12 -22 -17 -22 -4 0 -16 -15 -26 -33 -22 -37 -177
-240 -212 -277 -14 -14 -50 -54 -82 -89 -58 -66 -213 -219 -325 -323 -128
-118 -151 -138 -158 -138 -5 0 -36 -24 -71 -53 -35 -28 -77 -61 -93 -73 -17
-11 -52 -36 -80 -55 -27 -20 -69 -46 -92 -59 -24 -13 -43 -27 -43 -31 0 -3
-30 -22 -67 -40 -38 -19 -81 -44 -96 -56 -16 -13 -33 -23 -38 -23 -5 0 -32
-15 -61 -33 -29 -18 -78 -44 -108 -56 -30 -13 -65 -29 -77 -37 -49 -31 -348
-154 -374 -154 -9 0 -22 -7 -29 -15 -7 -8 -22 -15 -34 -15 -11 0 -48 -9 -81
-19 -179 -59 -450 -124 -565 -137 -25 -2 -61 -9 -80 -14 -19 -5 -87 -12 -150
-16 -63 -3 -123 -10 -132 -15 -24 -13 -537 -12 -691 1 -126 10 -218 22 -317
41 -25 5 -83 13 -130 19 -47 6 -93 15 -102 21 -10 5 -24 9 -33 9 -8 0 -54 12
-102 26 -49 14 -101 30 -118 34 -198 52 -489 167 -715 284 -221 113 -254 132
-351 197 -30 19 -67 44 -83 55 -16 10 -36 24 -45 29 -9 6 -47 35 -86 65 -38
30 -94 72 -125 94 -60 42 -86 64 -204 170 -121 108 -223 210 -327 326 -87 97
-133 155 -261 323 -26 34 -54 69 -63 78 -8 9 -15 23 -15 32 0 8 -3 17 -8 19
-4 2 -27 35 -52 73 -24 39 -48 72 -51 75 -4 3 -14 21 -23 40 -9 19 -28 55 -42
80 -14 25 -55 101 -91 170 -35 69 -69 129 -74 135 -5 5 -9 18 -9 28 0 10 -6
31 -14 45 -18 34 -49 104 -69 157 -8 22 -31 82 -51 132 -20 51 -36 102 -36
113 0 11 -6 37 -14 57 -29 79 -65 211 -81 298 -9 50 -20 104 -26 120 -9 31
-44 260 -53 355 -28 282 -26 740 5 905 6 33 19 121 30 195 35 258 97 496 204
785 15 39 31 84 37 100 5 17 23 57 39 90 16 33 47 101 70 150 42 92 153 300
195 367 13 21 24 45 24 53 0 9 6 18 14 21 8 3 29 31 48 61 18 31 43 67 56 80
12 13 22 30 22 38 0 8 6 18 13 22 8 4 53 60 101 123 48 63 95 122 105 130 9 8
44 47 77 85 68 78 268 279 310 310 14 11 50 43 79 70 29 28 65 59 81 70 15 11
48 37 73 58 25 20 71 54 101 75 30 20 60 42 65 48 23 24 67 44 98 44 31 0 40
-8 87 -67 105 -137 200 -239 290 -312 30 -25 73 -63 94 -84 53 -53 198 -159
326 -238 164 -101 483 -254 583 -279 18 -5 57 -16 87 -25 30 -9 77 -22 105
-29 46 -11 50 -15 58 -49 16 -66 -18 -78 -113 -42 -19 7 -60 18 -90 25 -30 7
-62 16 -70 20 -46 23 -93 40 -106 40 -9 0 -28 6 -42 14 -15 8 -54 25 -87 38
-33 13 -87 37 -120 55 -33 18 -85 44 -115 59 -76 38 -175 99 -200 124 -11 11
-27 20 -35 20 -8 0 -15 5 -15 11 0 5 -15 16 -34 24 -19 8 -36 18 -38 22 -4 11
-93 83 -102 83 -4 0 -24 15 -44 34 -21 18 -68 62 -107 97 -38 35 -83 78 -99
96 -16 18 -36 33 -43 33 -7 0 -13 5 -13 10 0 6 -13 24 -30 42 -16 17 -30 34
-30 38 0 4 -23 30 -51 59 -57 56 -80 62 -119 30 -14 -11 -41 -31 -61 -43 -19
-13 -73 -56 -119 -96 -46 -39 -95 -79 -109 -87 -78 -47 -464 -452 -549 -575
-12 -18 -51 -71 -86 -118 -34 -47 -69 -96 -76 -110 -7 -14 -25 -41 -40 -60
-15 -19 -35 -51 -46 -70 -10 -19 -26 -44 -36 -55 -39 -47 -281 -545 -303 -625
-4 -14 -24 -72 -45 -130 -74 -204 -100 -295 -106 -364 -2 -26 -8 -54 -14 -61
-6 -8 -14 -39 -17 -70 -3 -30 -10 -58 -14 -61 -5 -3 -9 -23 -9 -44 0 -21 -5
-51 -11 -67 -28 -71 -62 -531 -55 -733 11 -292 17 -384 26 -410 4 -14 14 -65
20 -115 7 -49 19 -121 27 -160 8 -38 21 -99 28 -135 23 -117 80 -317 106 -375
5 -11 17 -45 28 -75 62 -184 123 -332 187 -455 9 -16 39 -75 67 -130 28 -55
59 -109 69 -119 10 -11 18 -25 18 -32 0 -6 7 -18 16 -25 9 -7 20 -24 25 -37
15 -38 140 -223 155 -229 8 -3 14 -11 14 -19 0 -7 6 -17 13 -21 7 -4 27 -30
45 -58 18 -27 49 -69 69 -93 21 -24 47 -54 58 -67 58 -71 149 -169 219 -238
73 -71 116 -110 229 -207 22 -19 53 -46 67 -60 15 -14 46 -38 71 -55 46 -30
65 -46 102 -81 12 -11 58 -43 102 -72 44 -28 92 -60 107 -72 14 -11 31 -20 36
-20 5 0 15 -7 22 -15 7 -8 31 -24 54 -35 22 -11 48 -24 56 -29 8 -5 22 -12 30
-15 8 -4 33 -17 55 -31 42 -27 45 -28 85 -45 14 -5 32 -14 40 -19 8 -6 47 -24
85 -41 39 -18 88 -40 110 -50 54 -25 193 -80 230 -90 17 -5 71 -24 120 -42 50
-19 117 -40 150 -47 33 -7 74 -18 90 -23 33 -11 183 -45 255 -58 148 -26 247
-41 340 -50 58 -5 116 -12 129 -16 43 -10 544 -5 636 6 174 22 321 43 430 62
165 30 183 33 275 61 47 14 103 28 125 32 22 4 49 13 60 19 11 7 45 20 75 30
30 9 64 21 75 26 64 29 197 80 210 80 8 0 37 13 65 30 28 16 54 30 58 30 4 0
66 29 137 65 71 36 134 65 139 65 6 0 17 9 24 20 7 11 21 20 31 20 10 0 24 7
31 15 6 8 48 36 92 62 129 77 143 86 189 123 24 20 63 49 86 65 24 17 57 40
74 52 17 12 61 50 97 84 37 34 78 69 92 78 37 24 344 339 352 361 4 11 14 23
23 26 8 4 15 13 15 20 0 8 7 17 15 21 9 3 56 60 105 127 49 66 100 135 114
152 14 18 26 36 26 41 0 6 9 18 20 28 11 10 22 27 26 38 4 11 26 49 50 83 24
35 44 67 44 72 0 5 9 17 20 27 11 10 20 24 20 30 0 12 71 146 89 169 5 6 14
29 21 51 7 22 18 47 25 55 8 8 20 33 28 55 8 22 25 67 37 100 13 33 28 67 35
75 7 8 17 33 23 55 6 22 28 92 50 155 50 148 100 330 112 400 4 30 13 77 19
103 25 108 60 384 72 562 9 147 9 234 0 385 -14 252 -20 329 -27 360 -2 14
-11 57 -19 95 -9 39 -20 104 -26 145 -6 41 -15 91 -20 110 -6 19 -12 42 -13
50 -18 94 -64 254 -92 317 -8 17 -14 37 -14 45 0 17 -24 86 -33 94 -4 4 -7 17
-7 29 0 12 -8 33 -18 46 -11 13 -21 33 -25 44 -19 64 -87 222 -133 308 -8 15
-13 27 -10 27 3 0 -6 16 -19 36 -14 20 -25 41 -25 47 0 6 -6 18 -14 26 -8 9
-23 32 -34 51 -78 139 -200 329 -232 360 -3 3 -18 25 -34 50 -34 53 -70 99
-146 186 -30 35 -66 77 -80 94 -79 98 -361 363 -426 402 -19 11 -34 23 -34 28
0 4 -32 31 -71 61 -38 30 -90 70 -114 91 -24 20 -62 47 -85 59 -22 12 -40 26
-40 31 0 4 -7 8 -15 8 -9 0 -18 7 -21 15 -4 8 -12 15 -19 15 -7 0 -27 8 -43
17 -38 22 -81 9 -99 -28 -22 -46 -273 -288 -410 -395 -73 -57 -136 -104 -141
-104 -5 0 -17 -9 -27 -20 -10 -11 -22 -20 -27 -20 -5 0 -27 -12 -51 -27 -92
-60 -312 -173 -335 -173 -9 0 -29 -6 -44 -14 -15 -8 -40 -21 -55 -29 -49 -26
-171 -68 -213 -74 -14 -1 -41 -6 -62 -9 -31 -5 -37 -3 -43 16 -4 12 -4 32 -1
45 6 24 27 34 151 70 125 36 308 113 390 165 17 10 55 31 85 46 106 52 305
191 425 297 82 73 192 183 241 241 98 119 136 156 161 156 13 0 49 -14 81 -32z
m-3 -322 c17 -12 37 -27 45 -34 8 -7 36 -27 62 -45 78 -54 191 -142 232 -183
22 -22 53 -49 70 -62 33 -24 242 -230 290 -284 15 -18 52 -59 82 -92 30 -32
54 -62 54 -66 0 -14 145 -201 165 -212 8 -5 15 -15 15 -22 0 -8 7 -19 15 -26
8 -7 24 -32 35 -57 10 -24 35 -63 55 -87 19 -24 35 -50 35 -59 0 -9 4 -18 9
-21 24 -15 230 -425 231 -461 0 -6 12 -32 25 -60 14 -27 25 -57 25 -66 0 -9
13 -45 28 -80 16 -35 39 -98 51 -139 12 -41 29 -97 38 -125 9 -27 19 -70 24
-95 4 -25 26 -133 48 -241 22 -107 45 -247 52 -310 24 -228 13 -755 -20 -929
-5 -30 -12 -74 -15 -97 -2 -23 -7 -46 -10 -51 -3 -6 -8 -25 -11 -43 -2 -19
-11 -65 -20 -104 -9 -38 -18 -86 -22 -105 -3 -19 -10 -43 -14 -52 -5 -9 -15
-40 -24 -70 -59 -215 -84 -290 -125 -371 -17 -33 -30 -66 -30 -74 0 -12 -10
-35 -32 -73 -8 -13 -23 -48 -41 -90 -4 -8 -11 -22 -15 -30 -5 -8 -13 -24 -19
-35 -40 -81 -123 -229 -153 -275 -20 -30 -45 -68 -54 -85 -33 -58 -116 -181
-176 -258 -25 -32 -52 -69 -60 -81 -8 -12 -35 -42 -60 -67 -25 -24 -63 -66
-85 -94 -56 -72 -359 -364 -418 -403 -35 -24 -228 -168 -249 -186 -10 -9 -22
-16 -27 -16 -5 0 -14 -7 -21 -16 -8 -8 -27 -21 -44 -28 -17 -7 -52 -29 -78
-49 -26 -20 -62 -44 -80 -52 -18 -9 -51 -27 -73 -40 -22 -14 -51 -29 -65 -35
-33 -15 -120 -59 -193 -99 -31 -17 -62 -31 -68 -31 -12 0 -54 -17 -146 -61
-34 -16 -66 -29 -73 -29 -14 0 -128 -37 -192 -62 -26 -10 -57 -18 -70 -18 -13
0 -41 -9 -63 -20 -22 -11 -51 -20 -65 -20 -14 -1 -52 -8 -85 -16 -119 -31
-262 -57 -445 -79 -147 -18 -575 -27 -705 -14 -186 18 -406 51 -534 81 -69 16
-148 33 -176 38 -53 10 -120 32 -131 43 -4 4 -20 7 -36 7 -15 0 -67 16 -115
35 -48 19 -90 35 -95 35 -4 0 -40 16 -81 35 -41 19 -80 35 -87 35 -18 0 -141
60 -158 77 -7 7 -22 13 -32 13 -11 0 -38 13 -62 29 -24 15 -83 50 -132 76 -80
42 -146 82 -226 135 -14 9 -32 19 -40 23 -17 8 -53 35 -170 127 -45 36 -90 70
-99 75 -9 6 -38 31 -63 58 -26 26 -50 47 -55 47 -23 0 -393 385 -393 410 0 6
-11 16 -25 22 -14 6 -25 15 -25 20 0 8 -105 145 -143 188 -13 14 -125 189
-194 303 -35 58 -133 252 -133 263 0 4 -6 15 -13 23 -8 9 -22 39 -32 66 -10
28 -36 88 -57 135 -22 47 -44 96 -50 110 -6 14 -15 34 -19 45 -5 11 -15 45
-23 75 -7 30 -21 72 -30 94 -9 21 -16 49 -16 62 0 13 -4 33 -9 46 -13 32 -27
86 -57 213 -93 394 -117 901 -62 1294 11 80 24 175 29 210 5 36 13 78 18 95 5
17 16 67 26 111 32 145 75 285 152 495 20 52 46 124 58 158 13 35 28 69 34 75
6 6 11 17 11 25 0 8 8 26 18 40 10 15 31 54 47 87 15 33 49 96 74 140 53 91
52 91 106 172 42 63 70 109 94 152 8 15 36 53 63 86 26 33 62 79 80 103 18 24
50 61 71 84 21 23 61 68 90 101 62 72 166 176 265 266 41 36 95 86 120 111 47
45 120 99 135 100 4 0 17 9 29 20 41 38 59 27 210 -117 79 -76 163 -154 187
-173 24 -19 55 -47 69 -62 14 -16 29 -28 33 -28 4 0 35 -19 69 -42 103 -72
174 -118 196 -127 12 -5 24 -17 27 -25 4 -9 13 -16 22 -16 8 0 55 -22 105 -50
50 -27 96 -50 103 -50 7 0 17 -4 22 -9 21 -20 105 -61 125 -61 11 0 38 -9 60
-20 22 -11 45 -20 52 -20 7 -1 31 -9 53 -20 22 -11 47 -19 56 -20 8 0 19 -4
25 -8 5 -5 45 -19 89 -31 44 -12 94 -27 111 -32 17 -5 38 -9 47 -9 9 0 17 -3
18 -7 0 -5 2 -25 4 -45 5 -44 -15 -55 -67 -39 -89 26 -147 41 -164 41 -11 0
-24 4 -30 9 -5 4 -49 21 -99 36 -49 15 -103 33 -120 40 -177 75 -232 99 -245
110 -8 6 -42 25 -75 41 -84 40 -166 88 -264 153 -46 31 -100 67 -121 81 -109
72 -119 80 -287 236 -159 149 -170 157 -196 150 -13 -3 -41 -23 -63 -44 -21
-21 -61 -56 -89 -77 -54 -42 -362 -348 -408 -405 -95 -117 -267 -346 -267
-355 0 -2 -13 -23 -29 -47 -15 -24 -45 -74 -66 -113 -20 -38 -43 -74 -51 -78
-8 -4 -14 -17 -14 -27 0 -10 -5 -22 -11 -26 -10 -6 -84 -155 -139 -279 -12
-27 -28 -63 -35 -80 -8 -16 -25 -55 -39 -86 -14 -31 -31 -78 -37 -105 -14 -54
-55 -188 -68 -219 -4 -11 -20 -72 -36 -135 -15 -63 -31 -126 -36 -140 -9 -25
-14 -66 -43 -300 -25 -201 -32 -333 -30 -520 4 -224 42 -582 79 -730 9 -36 20
-81 25 -100 16 -74 33 -136 41 -155 5 -11 15 -45 23 -75 35 -126 83 -260 136
-375 20 -44 45 -100 55 -125 10 -25 26 -56 35 -70 9 -14 24 -42 33 -62 10 -20
37 -69 62 -109 25 -40 45 -77 45 -83 0 -5 11 -24 25 -42 14 -18 25 -36 25 -40
0 -4 17 -30 38 -58 20 -28 58 -82 84 -121 25 -38 58 -81 72 -94 14 -14 26 -29
26 -34 0 -5 15 -26 33 -46 17 -20 43 -52 57 -70 37 -51 394 -406 443 -442 23
-17 58 -45 77 -62 19 -18 54 -45 78 -60 24 -15 51 -37 60 -47 9 -11 20 -20 24
-20 4 0 45 -26 90 -59 85 -60 161 -106 234 -141 23 -11 47 -27 54 -35 7 -8 23
-15 36 -15 13 0 27 -6 31 -14 12 -21 158 -90 403 -190 8 -3 22 -10 30 -15 18
-11 145 -51 163 -51 7 0 53 -13 102 -28 50 -16 115 -36 145 -45 70 -21 251
-56 344 -67 39 -5 121 -16 181 -25 90 -13 169 -15 425 -12 173 3 331 8 350 11
19 3 60 8 90 11 30 3 110 14 177 25 112 18 153 28 283 65 25 7 81 23 125 35
164 44 375 124 518 196 16 8 34 14 40 14 15 0 105 45 126 63 9 8 36 22 61 31
25 10 47 21 50 25 3 4 39 27 80 51 96 57 225 142 269 178 19 15 42 30 52 34
11 4 19 12 19 18 0 5 6 10 13 10 13 0 27 11 155 123 131 112 196 173 252 232
131 137 197 212 216 240 10 16 33 43 50 61 18 17 37 42 44 55 7 13 27 42 45
64 78 98 152 214 231 360 14 28 32 57 39 65 6 8 30 51 53 95 22 44 47 94 56
110 9 17 16 37 16 45 0 9 4 20 9 25 10 12 114 272 134 340 45 145 58 191 86
310 17 72 35 146 41 165 13 49 38 235 50 365 12 146 7 701 -9 790 -6 39 -20
126 -31 195 -25 160 -44 250 -57 275 -6 11 -13 38 -17 60 -4 22 -15 67 -26
100 -10 33 -33 105 -50 160 -18 55 -38 116 -47 135 -28 66 -92 208 -104 232
-5 10 -9 27 -9 38 0 11 -7 23 -15 26 -8 3 -19 23 -25 44 -6 21 -17 43 -25 50
-8 7 -15 16 -15 20 0 13 -108 198 -157 270 -24 36 -73 108 -108 160 -35 52
-77 110 -92 129 -61 74 -229 265 -255 290 -10 9 -60 57 -112 106 -52 50 -111
105 -133 122 -36 31 -63 54 -143 121 -39 32 -127 94 -150 106 -8 4 -26 13 -39
21 -33 18 -43 12 -143 -88 -84 -83 -207 -183 -279 -225 -21 -13 -39 -28 -39
-32 0 -5 -15 -17 -32 -26 -18 -9 -35 -20 -38 -24 -3 -4 -21 -17 -41 -28 -19
-11 -72 -41 -117 -68 -116 -69 -184 -104 -203 -104 -9 0 -22 -7 -29 -15 -7 -8
-23 -15 -36 -15 -13 0 -27 -6 -31 -13 -9 -13 -79 -43 -183 -77 -35 -12 -76
-28 -92 -36 -15 -8 -37 -14 -48 -14 -12 0 -53 -10 -92 -21 -64 -20 -71 -20
-86 -6 -25 25 -6 91 28 95 52 7 417 130 426 143 3 5 13 9 23 9 10 0 24 7 31
15 7 8 21 15 31 15 9 0 33 9 51 21 18 11 80 48 138 81 224 130 464 308 589
439 116 119 140 130 206 85z m-50 -296 c6 0 25 -13 43 -30 18 -16 40 -30 48
-30 8 0 14 -5 14 -10 0 -6 8 -14 18 -17 9 -4 49 -36 87 -72 105 -98 465 -464
465 -473 0 -4 19 -31 43 -60 23 -29 55 -73 71 -98 16 -25 51 -72 77 -106 27
-34 53 -72 58 -85 6 -13 23 -45 38 -71 73 -122 95 -162 150 -278 34 -69 71
-150 83 -180 12 -30 26 -64 31 -75 21 -51 59 -158 84 -240 16 -49 39 -124 52
-165 22 -67 32 -109 47 -201 3 -14 11 -62 20 -105 16 -87 31 -222 27 -242 -1
-8 3 -20 9 -27 18 -21 18 -517 2 -680 -32 -305 -84 -548 -182 -850 -24 -71
-49 -137 -56 -146 -8 -8 -14 -23 -14 -33 0 -9 -18 -56 -41 -104 -22 -48 -48
-103 -56 -122 -9 -19 -20 -42 -24 -50 -5 -8 -20 -37 -33 -63 -14 -26 -39 -67
-55 -90 -16 -23 -36 -58 -45 -77 -26 -54 -56 -102 -128 -199 -27 -35 -48 -70
-48 -77 0 -7 -6 -17 -13 -21 -7 -4 -41 -44 -77 -88 -164 -206 -312 -355 -534
-540 -26 -22 -62 -52 -79 -67 -18 -15 -40 -34 -49 -42 -9 -8 -27 -20 -40 -27
-13 -6 -53 -34 -89 -60 -37 -27 -69 -49 -73 -49 -3 0 -32 -17 -63 -37 -32 -21
-67 -43 -78 -49 -130 -73 -214 -116 -233 -121 -14 -3 -58 -25 -98 -48 -41 -23
-93 -47 -116 -54 -24 -7 -55 -19 -69 -27 -15 -8 -67 -25 -115 -39 -49 -13
-116 -34 -149 -46 -63 -22 -182 -55 -250 -70 -22 -4 -60 -12 -85 -18 -52 -12
-246 -38 -340 -46 -36 -3 -77 -8 -90 -10 -44 -9 -522 -5 -605 5 -44 5 -125 14
-179 20 -55 6 -103 13 -108 16 -4 3 -49 12 -100 20 -51 8 -106 19 -123 24 -16
5 -57 16 -90 25 -106 30 -250 75 -265 84 -9 5 -31 12 -50 16 -19 4 -41 11 -50
16 -8 5 -51 22 -95 39 -44 17 -87 37 -95 44 -8 7 -42 23 -75 35 -33 12 -66 28
-75 35 -8 8 -40 24 -70 37 -30 13 -66 30 -80 39 -48 32 -105 68 -170 106 -36
21 -86 54 -112 74 -26 19 -77 58 -114 85 -85 64 -142 112 -225 189 -36 33 -83
77 -105 97 -21 20 -77 78 -124 129 -47 51 -105 114 -130 140 -25 25 -54 59
-65 75 -11 16 -35 46 -52 66 -18 20 -33 39 -33 42 0 6 -53 85 -92 138 -13 19
-42 66 -63 104 -21 39 -46 79 -55 90 -10 11 -21 30 -25 43 -3 12 -10 22 -15
22 -4 0 -11 16 -14 35 -4 19 -12 38 -19 42 -10 7 -87 154 -87 167 0 3 -16 39
-35 79 -68 143 -160 427 -196 602 -11 55 -24 108 -30 118 -5 9 -12 59 -15 110
-4 50 -10 97 -14 102 -5 6 -11 51 -14 100 -4 50 -10 122 -14 160 -9 94 -9 407
1 525 12 138 65 470 92 576 34 133 142 448 187 544 11 25 38 83 58 130 21 47
50 105 64 130 14 25 29 52 33 60 3 8 19 34 35 57 15 23 28 44 28 46 0 3 18 34
40 68 22 35 44 73 50 84 5 11 23 38 39 60 17 22 41 56 54 75 14 19 34 44 46
54 11 11 21 23 21 28 0 12 81 111 156 191 35 37 64 71 64 75 0 8 143 142 230
217 30 25 70 60 87 76 18 16 39 29 48 29 8 0 41 -25 74 -56 33 -30 84 -74 114
-97 30 -23 79 -63 108 -88 30 -26 65 -52 78 -59 13 -7 57 -36 99 -66 41 -30
80 -54 87 -54 7 0 20 -9 30 -20 10 -11 25 -20 34 -20 9 0 28 -8 41 -17 37 -27
115 -68 210 -113 47 -23 98 -47 113 -55 16 -8 34 -15 41 -15 6 0 50 -16 96
-36 47 -20 99 -40 115 -44 17 -5 55 -17 85 -28 58 -21 166 -49 238 -62 47 -8
49 -9 52 -30 7 -47 -1 -79 -20 -85 -12 -4 -26 -3 -33 3 -7 5 -38 14 -69 21
-31 7 -99 26 -150 42 -51 17 -106 34 -123 39 -39 11 -204 68 -230 80 -11 5
-31 12 -45 17 -24 8 -63 28 -255 133 -49 27 -100 53 -112 59 -22 10 -103 61
-113 71 -11 11 -67 48 -97 63 -18 10 -43 27 -57 39 -13 13 -34 30 -47 38 -12
8 -37 27 -54 43 -18 15 -37 27 -42 27 -5 0 -19 10 -30 23 -64 67 -105 99 -137
104 -34 5 -39 1 -225 -187 -105 -106 -191 -196 -191 -201 0 -4 -23 -34 -51
-66 -28 -32 -67 -83 -87 -113 -19 -30 -50 -73 -67 -95 -17 -22 -49 -69 -71
-105 -21 -36 -41 -67 -44 -70 -3 -3 -14 -23 -25 -45 -10 -22 -24 -47 -31 -55
-25 -31 -145 -277 -160 -327 -8 -29 -20 -55 -25 -58 -5 -4 -9 -14 -9 -23 -1
-9 -9 -35 -20 -57 -11 -22 -19 -47 -20 -55 0 -8 -8 -29 -19 -45 -10 -17 -20
-44 -23 -60 -3 -17 -15 -54 -27 -84 -36 -94 -105 -465 -136 -727 -30 -260 -8
-624 59 -964 30 -155 44 -217 64 -275 11 -33 23 -76 26 -95 4 -19 11 -44 16
-55 4 -11 25 -63 46 -115 20 -52 41 -99 45 -104 5 -6 9 -17 9 -25 0 -9 6 -28
14 -43 8 -14 19 -41 25 -60 6 -18 25 -58 41 -88 17 -30 37 -71 46 -90 9 -19
25 -45 35 -59 10 -13 19 -32 19 -43 0 -10 6 -21 14 -24 8 -3 20 -18 26 -32 24
-57 93 -161 113 -170 4 -2 7 -8 7 -14 0 -8 43 -76 72 -113 150 -194 349 -409
489 -529 19 -17 63 -55 99 -86 36 -30 90 -74 120 -96 30 -22 73 -53 95 -70 59
-43 128 -89 145 -97 8 -4 33 -18 55 -32 22 -13 49 -28 61 -33 11 -6 55 -31 98
-56 79 -47 164 -89 271 -133 33 -13 79 -33 102 -44 24 -10 52 -19 62 -19 11 0
22 -4 25 -9 7 -11 237 -88 308 -102 156 -32 202 -41 303 -58 201 -34 500 -64
530 -54 7 2 10 191 10 541 l0 537 -1125 5 c-619 3 -1131 9 -1138 13 -35 23
-202 209 -310 345 -45 57 -76 100 -182 256 -63 92 -103 161 -171 295 -44 85
-79 158 -79 163 0 5 -12 35 -26 66 -64 140 -69 153 -104 277 -12 44 -26 89
-31 100 -12 31 -39 149 -39 173 0 12 -4 30 -9 40 -11 21 -41 160 -41 189 0 12
-4 24 -8 27 -12 7 -26 257 -27 461 0 200 9 378 24 461 33 181 73 369 95 444
63 221 79 269 106 323 17 31 30 62 30 69 0 13 22 62 101 223 68 139 165 304
230 390 25 33 54 74 64 90 11 17 37 53 60 80 23 28 48 60 56 72 56 83 318 343
344 343 7 0 53 -35 90 -68 11 -10 38 -30 60 -45 22 -14 63 -42 90 -62 169
-121 372 -236 585 -332 19 -8 48 -22 63 -29 16 -8 33 -14 39 -14 6 0 34 -11
62 -24 45 -21 225 -80 326 -107 97 -25 245 -59 261 -59 34 0 98 -32 104 -51 9
-26 -19 -59 -111 -130 -95 -73 -133 -111 -205 -207 -53 -69 -129 -204 -129
-227 0 -5 -10 -34 -21 -65 -12 -30 -25 -64 -29 -75 -52 -135 -46 -420 12 -595
52 -159 104 -256 199 -371 182 -222 391 -335 720 -390 64 -10 96 -10 210 4
124 15 193 28 244 47 90 34 183 76 200 90 11 10 38 28 61 41 95 56 200 156
292 279 29 40 112 208 112 229 0 10 7 24 15 31 8 7 15 23 15 36 0 12 5 35 10
49 34 89 38 160 39 675 2 494 1 518 -19 580 -11 36 -30 76 -43 90 -58 64 -171
108 -245 96 -123 -22 -131 -20 -132 30 0 44 30 63 135 84 55 12 139 34 187 50
48 17 93 30 99 30 6 0 27 7 47 16 21 9 46 20 57 24 128 51 204 83 220 93 11 6
61 32 111 58 50 26 102 53 115 61 13 8 58 35 99 59 41 24 77 46 80 49 13 14
70 50 79 50 5 0 16 8 23 18 12 16 42 39 87 67 9 6 29 20 44 33 36 28 54 28 86
-2 31 -29 164 -147 183 -162 57 -47 240 -250 325 -362 10 -13 25 -32 33 -42 8
-11 26 -36 40 -55 14 -20 44 -60 68 -90 23 -29 42 -56 42 -58 0 -3 28 -52 63
-109 87 -144 189 -351 233 -471 26 -72 67 -183 77 -207 21 -51 32 -86 53 -175
14 -55 27 -118 29 -140 5 -40 17 -97 36 -165 23 -86 46 -351 48 -545 1 -142
-24 -463 -39 -500 -5 -11 -12 -45 -15 -75 -4 -30 -13 -82 -20 -115 -8 -33 -21
-94 -30 -135 -9 -41 -21 -84 -26 -95 -5 -11 -13 -38 -18 -60 -15 -61 -36 -127
-50 -160 -7 -16 -22 -52 -33 -80 -11 -27 -26 -61 -33 -75 -7 -14 -18 -43 -25
-64 -15 -48 -134 -281 -178 -350 -18 -28 -32 -54 -32 -59 0 -6 -15 -28 -34
-51 -18 -23 -40 -55 -49 -73 -9 -17 -20 -33 -24 -35 -5 -1 -25 -28 -46 -58
-57 -84 -92 -129 -156 -200 -33 -36 -72 -81 -88 -100 -15 -19 -32 -37 -37 -39
-5 -2 -32 -28 -59 -57 l-50 -54 -1125 0 c-619 0 -1127 -1 -1129 -3 -2 -2 -3
-244 -4 -538 l0 -534 138 1 c76 1 188 8 248 17 61 9 142 21 180 27 117 18 411
91 484 121 13 5 65 24 115 41 50 17 113 41 140 54 28 13 55 24 60 24 6 0 38
14 71 31 33 17 95 49 137 71 43 21 80 43 83 49 4 5 36 23 72 40 37 17 73 37
80 45 8 8 19 14 24 14 5 0 56 33 112 73 56 40 116 81 132 91 17 11 37 25 45
32 8 7 47 40 85 72 114 96 334 319 427 432 47 58 98 119 112 135 15 17 38 49
52 72 14 22 31 44 39 47 8 3 15 15 15 26 0 11 7 23 15 26 20 8 93 129 180 299
25 50 50 97 55 105 6 8 14 26 20 40 5 14 14 32 19 40 19 30 51 107 51 121 0 8
4 19 9 24 12 13 78 182 87 220 3 17 15 54 25 83 10 29 19 63 19 75 0 12 6 31
14 42 7 11 16 36 19 55 3 19 14 78 25 130 23 111 36 193 57 347 18 133 20 551
4 688 -6 50 -15 124 -19 165 -22 188 -64 380 -119 549 -23 68 -41 129 -41 137
0 7 -11 37 -24 66 -43 96 -56 128 -56 143 0 8 -4 15 -10 15 -5 0 -12 11 -16
25 -3 14 -15 42 -25 62 -10 21 -19 43 -19 50 0 6 -13 32 -30 56 -16 25 -30 51
-30 59 0 9 -11 27 -25 42 -14 15 -25 35 -25 45 0 10 -7 24 -15 31 -8 7 -15 18
-15 25 0 7 -7 18 -15 25 -8 7 -29 38 -46 69 -40 71 -79 130 -101 153 -10 10
-18 23 -18 28 0 11 -89 126 -178 228 -93 108 -331 343 -412 407 -41 33 -81 65
-88 72 -41 40 -82 35 -137 -16 -16 -16 -61 -52 -100 -80 -38 -29 -85 -64 -104
-79 -18 -14 -43 -31 -55 -37 -39 -21 -131 -78 -166 -104 -45 -33 -62 -43 -135
-79 -85 -42 -275 -132 -305 -144 -14 -6 -38 -16 -55 -23 -16 -7 -61 -22 -100
-33 -38 -11 -108 -31 -155 -45 -196 -57 -210 -58 -210 -10 0 47 23 68 87 82
75 16 163 40 188 51 11 5 36 13 55 19 83 23 127 42 313 130 59 28 109 51 111
51 8 0 152 84 205 119 29 20 60 41 70 46 120 74 277 196 390 303 8 8 23 11 35
8 12 -3 26 -6 31 -6z m-2814 -5726 c7 -8 25 -22 40 -29 32 -17 64 -91 56 -132
-15 -83 -26 -104 -73 -140 -67 -51 -177 -32 -234 40 -21 27 -25 42 -25 102 0
61 4 75 25 101 40 49 88 73 146 74 35 0 56 -5 65 -16z m1523 -10 c108 -68 117
-202 20 -282 -51 -42 -92 -49 -157 -26 -42 16 -58 29 -84 68 -43 63 -45 120
-5 182 51 82 149 107 226 58z"/>
</g>
</svg>
